<?xml version="1.0" encoding="utf-8"?>
<!-- Generator: Adobe Illustrator 18.0.0, SVG Export Plug-In . SVG Version: 6.00 Build 0)  -->
<!DOCTYPE svg PUBLIC "-//W3C//DTD SVG 1.1//EN" "http://www.w3.org/Graphics/SVG/1.1/DTD/svg11.dtd">
<svg version="1.1" id="Layer_1" xmlns="http://www.w3.org/2000/svg" xmlns:xlink="http://www.w3.org/1999/xlink" x="0px" y="0px"
	 viewBox="0 0 1024 1024" enable-background="new 0 0 1024 1024" xml:space="preserve">
<path fill="#8256D8" d="M579.9,387.6l-2.7,2.4c-4.9-0.6-9.8-1-14.5-1.4c-16.8-1.6-50.8-1.2-50.8-1.2s-34.2-0.6-51,1
	c-4.7,0.4-9.5,0.9-14.4,1.4l-2.3-2.2c-0.6-12,0-24,1.7-35.8c1.4-9.8,2.7-20.7,8.1-29.3c4.8-7.7,11.7-14.2,19.8-18.4
	c11.8-6.3,38.2-5.7,38.2-5.7s26.7-0.6,38.5,5.7c6.8,3.6,12.7,8.7,17.3,14.9h-59.6c-0.9-3-3.9-5.4-7.5-5.4c-4.3,0-7.8,3.6-7.8,7.9
	c0,4.3,3.5,8,7.8,8c3.5,0,6.5-2.5,7.5-5.5H571c1.9,3.4,3.2,7.1,4.2,11h-43.1c-0.9-3-3.9-5.4-7.5-5.4c-4.3,0-7.8,3.6-7.8,7.9
	c0,4.3,3.5,8,7.8,8c3.5,0,6.5-2.5,7.5-5.5h44.3c0.7,3.7,1.2,7.4,1.7,11h-22c-0.9-3-3.9-5.4-7.5-5.4c-4.3,0-7.8,3.6-7.8,7.9
	c0,4.3,3.5,8,7.8,8c3.5,0,6.5-2.5,7.5-5.5h22.7C580,366.5,580.4,377.1,579.9,387.6z"/>
<g>
	<path fill="#9A6CE5" d="M370.2,493.8c0,0.8,0,1.5,0,2.2c0,2.1,0,4.3,0.1,6.4c0,0.9,0,1.8,0.1,2.7c0,0.6,0,1.3,0.1,1.9
		c0,0.1,0,0.2,0,0.3c0,1,0.1,1.9,0.1,2.9c0,0.8,0.1,1.7,0.1,2.5c0,0.8,0.1,1.7,0.2,2.5c0,0.3,0,0.6,0,0.8c0.1,0.9,0.1,1.7,0.2,2.6
		c0,0.7,0.1,1.3,0.2,2c0.1,1.2,0.2,2.4,0.3,3.6l-0.6,0.3c-1.8,0.3-3.5,0.7-5.2,1.2c-6.4,2-11.9,6.1-15.9,11.5
		c-2.5,3.4-4.3,7.2-5.6,11.2c-2.6,8.2,0.5,18.3-11.9,18.1c-14.5-0.3-21.4-20.6-20.9-32.4c0.4-9.7,4.2-18.8,5-28.4
		c0.8-10,0.9-18-3.8-27.3c-6.9-13.7-18.6-24.5-23.5-39.3c-9.2-27.6,19-55.5,46.8-47.3c16.7,4.9,23.7,19.3,27.6,34.9
		c1.1,4.5,2.9,8.6,5.2,12.5c1.3,2.3,2.8,4.5,4.4,6.7l0.3,0.2c-0.8,5.3-1.4,10.7-1.8,16c-0.1,1.8-0.3,3.7-0.4,5.6
		c-0.1,1.3-0.2,2.6-0.3,3.9c-0.1,0.9-0.1,1.9-0.2,2.8c-0.1,1.7-0.2,3.3-0.2,5c-0.1,1.7-0.1,3.4-0.2,5.1c0,1.2-0.1,2.5-0.1,3.7
		c0,0.7,0,1.3,0,2C370.2,491.2,370.2,492.5,370.2,493.8z"/>
	<g>
		<path fill="#8256D8" d="M342,450.1c0,0-0.3-0.4-0.8-1.3c-0.5-0.8-1.4-2.1-2.4-3.6c-1-1.5-2.4-3.3-4-5.2c-1.7-1.9-3.8-3.8-6.3-5.1
			c-1.3-0.6-2.6-1.2-4.1-1.5c-0.4-0.1-0.7-0.1-1.1-0.2c-0.4,0-0.8-0.1-1.1-0.1c-0.2,0-0.5,0-0.6,0l-0.5,0c-0.4,0-0.7,0.1-1.1,0.2
			c-1.4,0.3-2.8,1-3.7,1.9c-0.4,0.5-0.8,1.1-1,1.5c-0.1,0.2-0.2,0.5-0.2,0.6c0,0.1-0.1,0.2-0.1,0.4c-0.1,0.3-0.1,0.7-0.1,1
			c0,1.4,0.5,3,1.3,4.6c0.4,0.8,0.9,1.6,1.4,2.3l0.9,1.3l0.8,1.1c2.4,3.1,5.2,6.3,8,9.6c1.4,1.7,2.7,3.4,4,5.2
			c1.3,1.8,2.4,3.8,3.4,5.9c0.9,2.1,1.6,4.4,2,6.5c0.4,2.3,0.5,4.5,0.4,6.6c-0.2,4.3-1.1,8.2-2.2,11.8c-1.1,3.6-2.4,6.8-3.5,9.8
			c-1.1,3-2.2,5.7-2.9,8.1c-0.8,2.4-1.3,4.6-1.7,6.4c-0.4,1.8-0.5,3.2-0.6,4.2c-0.1,1-0.1,1.5-0.1,1.5s-0.1-0.5-0.2-1.5
			c-0.1-1-0.3-2.5-0.2-4.4c0-1.9,0.2-4.2,0.6-6.8c0.4-2.6,1.1-5.5,1.9-8.6c0.8-3.1,1.7-6.4,2.4-9.9c0.7-3.5,1.3-7.1,1.2-10.8
			c0-1.8-0.2-3.7-0.6-5.4l-0.1-0.6l-0.2-0.7l-0.2-0.7l0,0c0,0.2,0,0,0,0l0-0.1l-0.1-0.2l-0.1-0.3c-0.2-0.4-0.3-0.9-0.5-1.3l-0.6-1.3
			c-0.8-1.7-1.8-3.3-3-5c-1.2-1.6-2.4-3.2-3.8-4.8c-2.7-3.2-5.5-6.4-8.1-10l-1-1.4l-0.8-1.3c-0.6-1-1.1-2-1.6-3.1
			c-0.9-2.1-1.6-4.5-1.5-7.1c0-0.6,0.1-1.3,0.3-1.9c0.1-0.3,0.2-0.7,0.3-1c0.1-0.4,0.2-0.5,0.3-0.8c0.6-1.3,1.4-2.3,2.3-3.2
			c1.9-1.7,4.2-2.5,6.3-2.8c0.5-0.1,1.1-0.1,1.6-0.1c0.3,0,0.6,0,0.9,0c0.3,0,0.5,0,0.7,0.1c0.6,0.1,1,0.2,1.5,0.3
			c0.5,0.1,1,0.2,1.4,0.4c1.9,0.5,3.5,1.4,5,2.4c2.9,2,4.8,4.5,6.3,6.7c1.5,2.2,2.5,4.3,3.2,6c0.8,1.7,1.3,3.1,1.7,4
			C341.9,449.6,342,450.1,342,450.1z"/>
	</g>
	<g>
		<path fill="#8256D8" d="M342.3,460.9c0,0,0.2,0,0.5,0c0.3,0.1,0.9,0.3,1.4,0.7c0.5,0.4,1,1.1,1.5,1.8c0.5,0.7,1.1,1.5,1.7,2.4
			c0.6,0.9,1.1,2,1.7,3.1c0.5,1.1,1,2.4,1.4,3.7c0.2,0.7,0.4,1.3,0.5,2c0.2,0.7,0.3,1.4,0.4,2.1c0.2,1.4,0.3,2.9,0.4,4.4
			c0,1.5-0.1,3-0.4,4.4c-0.2,1.5-0.6,2.9-1,4.2c-0.4,1.3-1,2.5-1.5,3.6c-0.5,1.1-1.1,2.1-1.6,3c-1,1.9-2,3.4-2.6,4.4
			c-0.7,1-1.1,1.6-1.1,1.6s0.1-0.7,0.4-1.9c0.3-1.2,0.8-2.9,1.4-4.9c0.3-1,0.7-2.1,1-3.2c0.4-1.1,0.7-2.3,1-3.5
			c0.3-1.2,0.5-2.5,0.6-3.8c0.2-1.3,0.2-2.6,0.2-3.9c0-1.3-0.1-2.6-0.2-3.9c-0.1-1.3-0.3-2.6-0.6-3.8c-0.5-2.5-1.2-4.8-1.8-6.7
			c-0.2-0.5-0.4-0.9-0.5-1.4c-0.1-0.4-0.3-0.9-0.5-1.3c-0.3-0.8-0.6-1.5-0.9-2c-0.3-0.5-0.6-0.8-0.9-1
			C342.5,460.9,342.3,460.9,342.3,460.9z"/>
	</g>
	<path fill="#9A6CE5" d="M711.3,478.2c-4.7,9.3-4.6,17.3-3.8,27.3c0.8,9.6,4.6,18.7,5,28.4c0.5,11.7-6.4,32.1-20.9,32.4
		c-12.4,0.2-9.3-9.9-11.9-18.1c-1.3-4-3.1-7.8-5.6-11.2c-5.1-6.9-12.6-11.5-21.1-12.7l-1.1-0.1c2.1-20.5,1.6-41.9,0-62.2
		c-0.4-5.3-1-10.6-1.8-16l0.7-0.4c4.4-6,7.8-12,9.6-19.1c3.9-15.6,10.9-30,27.6-34.9c27.7-8.1,55.9,19.8,46.8,47.3
		C729.9,453.7,718.2,464.5,711.3,478.2z"/>
	<g>
		<path fill="#8256D8" d="M682,450c0,0,0.2-0.5,0.5-1.4c0.4-0.9,0.9-2.3,1.7-4c0.8-1.7,1.8-3.8,3.2-6c1.5-2.2,3.4-4.7,6.3-6.7
			c1.5-0.9,3.1-1.9,5-2.4c0.5-0.2,0.9-0.3,1.4-0.4c0.5-0.1,0.9-0.2,1.5-0.3c0.2,0,0.4-0.1,0.7-0.1c0.3,0,0.6,0,0.9,0
			c0.5,0,1.1,0,1.6,0.1c2.2,0.3,4.4,1.1,6.3,2.8c1,0.9,1.7,1.9,2.3,3.2c0.1,0.3,0.2,0.4,0.3,0.8c0.1,0.3,0.2,0.7,0.3,1
			c0.2,0.6,0.2,1.3,0.3,1.9c0.1,2.6-0.6,5-1.5,7.1c-0.5,1.1-1,2.1-1.6,3.1l-0.8,1.3l-1,1.4c-2.5,3.6-5.4,6.8-8.1,10
			c-1.3,1.6-2.6,3.2-3.8,4.8c-1.1,1.6-2.1,3.3-3,5l-0.6,1.3c-0.2,0.4-0.3,0.9-0.5,1.3l-0.1,0.3l-0.1,0.2l0,0.1c0,0,0,0.1,0,0l0,0
			l-0.2,0.7l-0.2,0.7l-0.1,0.6c-0.4,1.7-0.6,3.6-0.6,5.4c-0.1,3.7,0.5,7.3,1.2,10.8c0.7,3.5,1.7,6.8,2.4,9.9c0.8,3.1,1.4,6,1.9,8.6
			c0.4,2.6,0.6,4.9,0.6,6.8c0.1,1.9-0.1,3.4-0.2,4.4c-0.2,1-0.2,1.5-0.2,1.5s0-0.5-0.1-1.5c-0.1-1-0.3-2.4-0.6-4.2
			c-0.3-1.8-0.9-4-1.7-6.4c-0.8-2.4-1.8-5.1-2.9-8.1c-1.1-3-2.4-6.2-3.5-9.8c-1.1-3.6-2-7.5-2.2-11.8c-0.1-2.2,0-4.3,0.4-6.6
			c0.4-2.1,1.1-4.4,2-6.5c1-2.1,2.1-4.1,3.4-5.9c1.3-1.8,2.6-3.6,4-5.2c2.8-3.3,5.6-6.4,8-9.6l0.8-1.1l0.9-1.3
			c0.5-0.7,1-1.5,1.4-2.3c0.8-1.6,1.3-3.2,1.3-4.6c0-0.4,0-0.7-0.1-1c0-0.2-0.1-0.3-0.1-0.4c0-0.1-0.1-0.4-0.2-0.6
			c-0.2-0.5-0.5-1.1-1-1.5c-0.9-1-2.3-1.6-3.7-1.9c-0.4-0.1-0.7-0.1-1.1-0.2l-0.5,0c-0.2,0-0.4,0-0.6,0c-0.3,0-0.7,0.1-1.1,0.1
			c-0.4,0-0.8,0.1-1.1,0.2c-1.5,0.2-2.9,0.8-4.1,1.5c-2.5,1.4-4.6,3.3-6.3,5.1c-1.7,1.9-3,3.7-4,5.2c-1,1.5-1.9,2.7-2.4,3.6
			C682.2,449.6,682,450,682,450z"/>
	</g>
	<g>
		<path fill="#8256D8" d="M681.7,460.9c0,0-0.2,0-0.5,0.2c-0.3,0.2-0.6,0.5-0.9,1c-0.3,0.5-0.5,1.2-0.9,2c-0.2,0.4-0.3,0.8-0.5,1.3
			c-0.2,0.4-0.4,0.9-0.5,1.4c-0.7,2-1.3,4.2-1.8,6.7c-0.3,1.2-0.5,2.5-0.6,3.8c-0.1,1.3-0.2,2.6-0.2,3.9c0,1.3,0.1,2.6,0.2,3.9
			c0.1,1.3,0.4,2.5,0.6,3.8c0.3,1.2,0.6,2.4,1,3.5c0.4,1.1,0.7,2.2,1,3.2c0.6,2,1.1,3.7,1.4,4.9c0.3,1.2,0.4,1.9,0.4,1.9
			s-0.4-0.6-1.1-1.6c-0.7-1-1.6-2.6-2.6-4.4c-0.5-0.9-1.1-1.9-1.6-3c-0.5-1.1-1.1-2.3-1.5-3.6c-0.4-1.3-0.8-2.7-1-4.2
			c-0.3-1.4-0.3-2.9-0.4-4.4c0-1.5,0.1-3,0.4-4.4c0.1-0.7,0.2-1.4,0.4-2.1c0.1-0.7,0.3-1.4,0.5-2c0.4-1.3,0.9-2.5,1.4-3.7
			c0.5-1.1,1.1-2.2,1.7-3.1c0.6-0.9,1.1-1.8,1.7-2.4c0.5-0.7,1-1.3,1.5-1.8c0.5-0.5,1-0.7,1.4-0.7
			C681.6,460.8,681.7,460.9,681.7,460.9z"/>
	</g>
</g>
<g>
	<path fill="#9A6CE5" d="M437.9,720.9c0-19.6-13.1-36.1-31.1-41.2c-6.7,27-18.5,53.1-31.6,76.4c-0.4,0.7-0.8,1.3-1.1,2
		c6.2,3.5,13.4,5.5,21,5.5C418.8,763.7,437.9,744.6,437.9,720.9z"/>
	<path fill="#9A6CE5" d="M698.2,821.5c-14.6-12.2-26.2-27.5-36.4-43.6l-71,66.7c-1.9,1.8-4.9,1.7-6.7-0.2c-0.9-0.9-1.3-2.1-1.3-3.3
		c0-1.3,0.5-2.5,1.5-3.5l72.4-68c-2.7-4.5-5.3-9-7.8-13.6c-3.4-6.1-6.9-12.4-9.9-18.9v0l-48.1,45.1c-0.1,0.1-0.3,0.2-0.5,0.3
		c0,0,0,0,0,0c-1.9,1.5-4.6,1.3-6.3-0.5c-0.8-0.8-1.1-1.8-1.2-2.8c0-0.1,0.1-0.3,0.1-0.4v-0.1c0-0.2-0.1-0.4-0.1-0.5
		c0-0.3,0-0.8,0.1-1c0.2-0.8,0.7-1.3,1.3-2.3h0l50.2-47c-4.6-10-8.8-20.2-12.3-30.7l-31.4,29.5c-1.9,1.8-4.9,1.7-6.7-0.2
		c-0.9-0.9-1.3-2.1-1.3-3.3c0-1.3,0.5-2.5,1.5-3.5l34.8-32.7c0,0,0-0.1,0-0.1v0c-2-9.2-4.6-18.4-5.9-27.8l-22.3,21
		c-1.9,1.8-4.9,1.7-6.7-0.2c-0.9-0.9-1.3-2.1-1.3-3.3c0-1.3,0.5-2.5,1.5-3.5l27.6-25.9c-0.9-11.2-0.6-22.4,1-33.5
		c1.3-9.1,3.5-18.1,6.8-27l-0.1-0.1c-1.4,0.5-2.8,0.9-4.2,1.4c-19.7,5.5-40.4,6.3-60.9,7c-13.9,0.5-42.6,1.3-42.6,1.3
		s-1.4,0-3.7-0.1c-0.2,0-0.5,0-0.7,0c-3.3-0.1-8.2-0.3-13.5-0.5c-1.1,0-2.3-0.1-3.5-0.1c-1.4,0-2.8-0.1-4.2-0.1
		c-0.9,0-1.8-0.1-2.7-0.1c-0.9,0-1.8-0.1-2.7-0.1c-1.3,0-2.6-0.1-3.9-0.1c-2.9-0.1-5.7-0.2-8-0.3c-20.5-0.7-41.2-1.5-60.9-7
		c-1.3-0.3-2.5-0.8-3.7-1.2c-0.1,0.1-0.1,0.2-0.1,0.2c3.3,8.8,5.5,17.8,6.8,26.8c2.1,14.5,1.9,29.3-0.1,43.9
		c28.2,7.1,49.1,32.6,49.1,63c0,35.9-29.1,65-65,65c-11.8,0-22.9-3.1-32.4-8.6c-10.3,16.3-22,31.9-36.9,44.3
		c-3.4,2.8-4.9,2.8-2.6,6.5c1,1.6,48.3,46,95.2,90c36.9,34.6,73.7,68.9,87.6,81.9V835.2c-8-2.4-14.2-10.1-14.2-19.2
		c0-11,9.3-20,20.3-20c11,0,20.1,9,20.1,20c0,9.1-6.2,16.8-14.2,19.2v164.5c16.3-15.1,62-57.8,103.6-96.8
		c41.1-38.5,78.3-73.4,79.2-74.9C703.1,824.3,701.5,824.4,698.2,821.5z"/>
</g>
<path fill="#8256D8" d="M619.6,587.1c-3.3,8.9-5.5,17.9-6.8,27c-19,4.9-38.8,5.6-58.4,6.3c-13.9,0.5-42.6,1.3-42.6,1.3
	s-28.9-1-42.8-1.5c-19.5-0.7-39.1-1.4-58-6.2c-1.3-9.1-3.5-18-6.8-26.9c0,0,0,0,0.1-0.2c1.2,0.5,2.4,0.8,3.7,1.2
	c19.7,5.5,40.4,6.3,60.9,7c2.3,0.1,5,0.2,8,0.3c1.3,0,2.5,0.1,3.9,0.1c0.9,0,1.8,0.1,2.7,0.1c0.9,0,1.8,0.1,2.7,0.1
	c1.4,0,2.8,0.1,4.2,0.1c1.2,0,2.3,0.1,3.5,0.1c5.3,0.2,10.2,0.4,13.5,0.5c0.3,0,0.5,0,0.7,0c2.3,0.1,3.7,0.1,3.7,0.1
	s28.7-0.8,42.6-1.3c20.5-0.7,41.2-1.5,60.9-7C616.8,588,618.2,587.5,619.6,587.1L619.6,587.1z"/>
<path fill="#9A6CE5" d="M653.9,462c-0.4-5.3-1-10.6-1.8-16c-0.6-4.1-1.4-8.3-2.5-12.3c-2.8-11-7.2-21.5-14.2-30.5
	c-0.1-0.1-0.1-0.2-0.2-0.2c-6.4-8-16.4-14-25.9-17.7c-5.6-2.2-11.5-3.8-17.6-4.9c-3.3-0.6-6.7-1.2-10.1-1.6c-1.5-0.2-3-0.4-4.5-0.5
	c-4.9-0.6-9.8-1-14.5-1.4c-11.9-1.1-32.3-1-43.3-1c-3.4,0-5.9,0.3-7,0.3c-0.4,0-0.6,0-0.6,0s-0.1,0-0.2,0h-1.7
	c-0.3,0-0.6-0.3-0.9-0.3c-3,0-8-0.2-14-0.2c-2,0-4.2,0-6.4,0c-9.7,0.1-20.5,0.3-27.8,1c-4.7,0.4-9.5,0.8-14.4,1.4
	c-11,1.3-22.3,3.1-32.2,7.1c-9.5,3.8-19.5,9.8-25.9,17.7c-0.1,0.1-0.1,0.2-0.2,0.2c-7.1,9-11.5,19.5-14.3,30.6
	c-0.1,0.4-0.2,0.9-0.3,1.3c-0.8,3.2-1.4,6.3-1.9,9.5c-0.1,0.4-0.1,0.9-0.2,1.3c-0.8,5.3-1.4,10.7-1.8,16c-0.6,7.4-1,14.9-1.2,22.4
	c-0.1,3.2-0.1,6.3-0.1,9.5c0,4.5,0,9,0.2,13.4c0.2,5.7,0.6,11.3,1.2,16.8c0,0.1,0,0.2,0,0.3c0.3,2.7,0.6,5.4,1,8.1
	c0.1,0.5,0.1,1,0.2,1.5c1.9,12.3,5.4,24.5,11.3,35.5c5,9.2,12.6,15.3,22.3,18.8c1.2,0.5,2.4,0.9,3.7,1.2c19.7,5.5,40.4,6.3,60.9,7
	c9.1,0.3,24.7,0.9,34.3,1.2c0,0,0.1,0,0.1,0c2.3,0.1,4.2,0.2,5.6,0.2c1.7,0.1,2.7,0.1,2.7,0.1s9.5-0.3,20.2-0.6
	c7.9-0.2,16.5-0.5,22.4-0.7c4.3-0.2,8.6-0.3,12.9-0.5c3.8-0.2,7.7-0.4,11.5-0.7c2.7-0.2,5.5-0.4,8.2-0.7c9.6-1,19-2.5,28.3-5.1
	c1.4-0.4,2.8-0.9,4.2-1.4c1.2-0.5,2.4-0.9,3.6-1.5c2.4-1.1,4.7-2.5,6.9-4c3.8-2.7,7.1-6.1,9.7-10.2c0.6-0.9,1.2-1.9,1.7-2.9
	c0.7-1.3,1.4-2.6,2-4c3.2-6.8,5.6-14,7.3-21.3c0.9-3.8,1.6-7.7,2.2-11.6c0.3-2.1,0.6-4.2,0.8-6.3c0.1-0.7,0.2-1.4,0.3-2.1
	c0-0.2,0-0.3,0-0.5c0.3-3.2,0.6-6.4,0.8-9.6c0.1-2.2,0.3-4.4,0.3-6.5C655.7,492.3,655.1,476.8,653.9,462z M404.1,457.8
	c0-8.5,2.2-16.4,6-23.3l21.4,14.8c-1.1,2.6-1.7,5.5-1.7,8.4c0,8.3,4.5,15.4,11.2,19.2c3.2,1.8,6.9,2.9,10.9,2.9
	c12.2,0,22.1-9.9,22.1-22.1c0-10.1-6.8-18.6-16-21.3c-1.9-0.5-3.9-0.8-6-0.8c-5.9,0-11.2,2.3-15.2,6l-21.4-14.8
	c8.8-10.4,21.9-17,36.6-17c4,0,8,0.5,11.7,1.5c-0.7,5.4-1.8,10.8-3.1,16.1c13.2,3.8,22.9,15.9,22.9,30.3c0,17.4-14.1,31.5-31.5,31.5
	c-5.6,0-10.9-1.5-15.5-4.1c-2.7,4.7-5.5,9.4-8.4,14.1C413.8,491,404.1,475.5,404.1,457.8z M583.3,557c0,0-22.1,15-71.6,15
	s-71.1-15-71.1-15s-12-12.3,0-24.3s22.3,15,71.3,15s60-26.3,71.3-15C594.7,544,583.3,557,583.3,557z M593.6,499.3
	c-2.9-4.7-5.7-9.4-8.4-14.1c-4.6,2.6-9.9,4.1-15.5,4.1c-17.4,0-31.5-14.1-31.5-31.5c0-14.4,9.7-26.5,22.9-30.3
	c-1.3-5.3-2.4-10.7-3.1-16.1c3.7-1,7.7-1.5,11.7-1.5c14.7,0,27.8,6.6,36.6,17l-21.4,14.8c-4-3.7-9.3-6-15.2-6c-2.1,0-4.1,0.3-6,0.8
	c-9.3,2.6-16,11.2-16,21.3c0,12.2,9.9,22.1,22.1,22.1c4,0,7.7-1,10.9-2.9c6.7-3.8,11.2-11,11.2-19.2c0-3-0.6-5.8-1.7-8.4l21.4-14.8
	c3.8,6.9,6,14.8,6,23.3C617.6,475.5,607.9,491,593.6,499.3z"/>
<linearGradient id="SVGID_1_" gradientUnits="userSpaceOnUse" x1="671.6865" y1="375.018" x2="671.6865" y2="719.2468" gradientTransform="matrix(0.7071 -0.7071 0.7071 0.7071 -680.506 274.5731)">
	<stop  offset="0.1434" style="stop-color:#FFFFFF;stop-opacity:0"/>
	<stop  offset="1" style="stop-color:#9A6CE5"/>
</linearGradient>
<circle fill="url(#SVGID_1_)" cx="181.3" cy="186.5" r="172.1"/>
<linearGradient id="SVGID_2_" gradientUnits="userSpaceOnUse" x1="403.7487" y1="609.2303" x2="403.7487" y2="641.9532" gradientTransform="matrix(0.7071 -0.7071 0.7071 0.7071 -431.268 45.4735)">
	<stop  offset="0" style="stop-color:#FFFFFF;stop-opacity:0"/>
	<stop  offset="1" style="stop-color:#9A6CE5"/>
</linearGradient>
<path fill="url(#SVGID_2_)" d="M307.5,191.4c6.4,6.4,6.7,16.5,0.6,22.5c-6.1,6.1-16.1,5.8-22.5-0.6c-6.4-6.4-6.7-16.5-0.6-22.5
	C291.1,184.7,301.2,185,307.5,191.4z"/>
<linearGradient id="SVGID_3_" gradientUnits="userSpaceOnUse" x1="250.0781" y1="709.0892" x2="250.0781" y2="763.9972" gradientTransform="matrix(0.7071 -0.7071 0.7071 0.7071 -472.3615 -45.9322)">
	<stop  offset="0" style="stop-color:#FFFFFF;stop-opacity:0"/>
	<stop  offset="1" style="stop-color:#9A6CE5"/>
</linearGradient>
<circle fill="url(#SVGID_3_)" cx="225.3" cy="298.1" r="27.5"/>
<linearGradient id="SVGID_4_" gradientUnits="userSpaceOnUse" x1="350.1537" y1="617.3591" x2="350.1537" y2="651.1913" gradientTransform="matrix(0.7071 -0.7071 0.7071 0.7071 -514.9547 16.2303)">
	<stop  offset="0" style="stop-color:#FFFFFF;stop-opacity:0"/>
	<stop  offset="1" style="stop-color:#9A6CE5"/>
</linearGradient>
<circle fill="url(#SVGID_4_)" cx="181.1" cy="217.1" r="16.9"/>
</svg>
