<?xml version="1.0" encoding="UTF-8" standalone="no"?>
<!-- Created with Inkscape (http://www.inkscape.org/) -->

<svg
   xmlns:osb="http://www.openswatchbook.org/uri/2009/osb"
   xmlns:dc="http://purl.org/dc/elements/1.1/"
   xmlns:cc="http://creativecommons.org/ns#"
   xmlns:rdf="http://www.w3.org/1999/02/22-rdf-syntax-ns#"
   xmlns:svg="http://www.w3.org/2000/svg"
   xmlns="http://www.w3.org/2000/svg"
   xmlns:sodipodi="http://sodipodi.sourceforge.net/DTD/sodipodi-0.dtd"
   xmlns:inkscape="http://www.inkscape.org/namespaces/inkscape"
   width="130.12221mm"
   height="71.864883mm"
   viewBox="0 0 130.12221 71.864881"
   version="1.1"
   id="svg8"
   inkscape:version="0.92.5 (2060ec1f9f, 2020-04-08)"
   sodipodi:docname="ghamla.svg">
  <defs
     id="defs2">
    <linearGradient
       id="linearGradient3272"
       osb:paint="solid">
      <stop
         style="stop-color:#808000;stop-opacity:1;"
         offset="0"
         id="stop3270" />
    </linearGradient>
    <inkscape:perspective
       sodipodi:type="inkscape:persp3d"
       inkscape:vp_x="176.27364 : -90.741054 : 1"
       inkscape:vp_y="-3435.405 : 6.0390807 : 0"
       inkscape:vp_z="111.22242 : 72.793587 : 1"
       inkscape:persp3d-origin="493.61715 : 11.362716 : 1"
       id="perspective827" />
    <clipPath
       clipPathUnits="userSpaceOnUse"
       id="clipPath1593">
      <path
         style="fill:none;stroke:#000000;stroke-width:1.8516227px;stroke-linecap:butt;stroke-linejoin:miter;stroke-opacity:1"
         d="M -115.63103,674.62253 286.73074,265.63584 659.52625,697.00421 Z"
         id="path1595"
         inkscape:connector-curvature="0"
         clip-path="none" />
    </clipPath>
    <clipPath
       clipPathUnits="userSpaceOnUse"
       id="clipPath1489">
      <rect
         style="opacity:1;fill:none;fill-opacity:1;stroke:#2a2aff;stroke-width:1.63698292;stroke-miterlimit:4;stroke-dasharray:none;stroke-opacity:1"
         id="rect1491"
         width="167.57201"
         height="107.58072"
         x="33.286678"
         y="21.546942" />
    </clipPath>
  </defs>
  <sodipodi:namedview
     id="base"
     pagecolor="#ffffff"
     bordercolor="#666666"
     borderopacity="1.0"
     inkscape:pageopacity="0.0"
     inkscape:pageshadow="2"
     inkscape:zoom="0.64"
     inkscape:cx="167.235"
     inkscape:cy="92.287046"
     inkscape:document-units="mm"
     inkscape:current-layer="layer1"
     showgrid="false"
     inkscape:snap-global="false"
     inkscape:window-width="1366"
     inkscape:window-height="683"
     inkscape:window-x="0"
     inkscape:window-y="0"
     inkscape:window-maximized="1" />
  <metadata
     id="metadata5">
    <rdf:RDF>
      <cc:Work
         rdf:about="">
        <dc:format>image/svg+xml</dc:format>
        <dc:type
           rdf:resource="http://purl.org/dc/dcmitype/StillImage" />
        <dc:title />
      </cc:Work>
    </rdf:RDF>
  </metadata>
  <g
     inkscape:label="Layer 1"
     inkscape:groupmode="layer"
     id="layer1"
     transform="translate(-32.307327,-37.486213)">
    <g
       id="g871"
       transform="matrix(1.0757327,0,0,1.1828677,-31.587334,-13.425902)">
      <g
         clip-path="url(#clipPath1489)"
         transform="matrix(0.52155124,0,0,0.52155124,37.305741,33.303866)"
         id="g1678">
        <path
           sodipodi:nodetypes="ccccccccccccc"
           inkscape:connector-curvature="0"
           id="path1006"
           d="m 176.04907,54.500799 16.49529,23.53757 -4.20341,17.918411 -13.88554,16.50385 -44.08299,11.1585 -50.223471,-0.21942 -22.929602,-3.88017 -13.796674,-4.11724 4.120254,-25.337315 32.555496,-36.182478 18.493694,-7.57411 39.424723,0.09271 z"
           inkscape:transform-center-y="-1.2834477"
           inkscape:transform-center-x="2.4828973"
           style="opacity:1;fill:#afafe9;fill-opacity:1;stroke:none;stroke-width:0.65730268;stroke-miterlimit:4;stroke-dasharray:none;stroke-opacity:1" />
        <path
           style="opacity:1;fill:#d7d7f4;fill-opacity:1;stroke:none;stroke-width:0.52819097;stroke-miterlimit:4;stroke-dasharray:none;stroke-opacity:1"
           inkscape:transform-center-x="1.9951903"
           inkscape:transform-center-y="-1.0313437"
           d="m 165.27535,60.811171 13.25518,18.914167 -3.37775,14.398759 -11.15805,13.262053 -35.42392,8.96668 -40.358251,-0.17632 -18.42562,-3.118 L 58.700298,109.75 62.011225,89.389607 88.171958,60.314328 103.033,54.227974 l 31.68066,0.0745 z"
           id="path919"
           inkscape:connector-curvature="0"
           sodipodi:nodetypes="ccccccccccccc" />
        <g
           id="g917"
           transform="matrix(3.1407532,0,0,3.1407532,-364.22008,-146.55239)">
          <g
             transform="matrix(0.09124242,0,0,0.09124242,76.592092,21.596858)"
             id="g2696">
            <g
               id="g2668">
              <path
                 style="fill:#25c900"
                 inkscape:connector-curvature="0"
                 d="m 786.2,514.5 c 0,0.2 -24.9,-5.8 -27.2,-6.8 -8.7,-4 -13.4,-10.3 -18.6,-18.1 -2.8,-4.3 -5.6,-8.9 -8,-13.7 l 4.3,-2.3 -6.5,-2.2 c -2.9,-6.4 -5.2,-13.1 -6.4,-19.9 l 7.6,0.9 -8.2,-5 c -0.5,-4.4 -0.5,-8.9 0.1,-13.4 0,0 0,0 0,0 l 6.7,-1 -5.7,-4.5 c 3,-11.7 10.2,-22.1 17.9,-31.6 0,0.3 0.1,0.6 0.1,0.9 1,9.4 3,18.7 5.9,27.8 l -2.6,7.7 4.4,-2.3 c 4.6,12.7 11,24.8 18.9,35.7 3.1,4.2 6.4,8.3 9.1,12.8 6.7,11.1 7.7,22.3 8,34.8 0.2,0.1 0.2,0.1 0.2,0.2 z"
                 id="path2664" />
              <path
                 style="fill:#009c15"
                 inkscape:connector-curvature="0"
                 d="m 786.2,514.3 c -3,-2.3 -5.7,-5 -8.3,-7.7 -16.5,-17.4 -30.8,-37.7 -36.7,-60.9 -2.8,-10.8 -3.7,-22.1 -2.7,-33.3 0.3,-3.4 0.8,-6.7 1.8,-9.9 0.5,-1.6 1.2,-3.2 2,-4.7 1,9.4 3,18.7 5.9,27.8 l -2.6,7.7 4.4,-2.3 c 4.6,12.7 11,24.8 18.9,35.7 3.1,4.2 6.4,8.3 9.1,12.8 6.9,11 7.9,22.2 8.2,34.8 z"
                 id="path2666" />
            </g>
            <g
               id="g2674">
              <path
                 style="fill:#1fc900"
                 inkscape:connector-curvature="0"
                 d="m 768.6,510.4 c -0.1,0.2 25.5,1.8 28,1.5 9.5,-1.2 15.9,-5.9 23.1,-11.8 4,-3.3 7.9,-6.9 11.7,-10.7 l -3.5,-3.4 6.8,-0.2 c 8.6,-9.7 15.5,-21 17.6,-33.7 0,0 0,0 0,0 l -6.2,-2.9 6.7,-2.6 c 0.6,-12.1 -3.3,-24.2 -7.8,-35.5 -0.1,0.3 -0.2,0.5 -0.3,0.8 -3.8,8.7 -8.4,17 -13.8,24.8 l 0.2,8.1 -3.6,-3.5 c -8.1,10.8 -17.8,20.5 -28.6,28.6 -4.2,3.1 -8.6,6.1 -12.5,9.5 -9.7,8.6 -13.9,19 -17.9,30.9 0.2,-0.1 0.2,0 0.1,0.1 z"
                 id="path2670" />
              <path
                 style="fill:#00ae0d"
                 inkscape:connector-curvature="0"
                 d="m 768.7,510.2 c 3.5,-1.3 6.9,-3.1 10.2,-4.9 20.9,-11.8 40.5,-27 53,-47.4 5.8,-9.5 10,-20.1 12.3,-31 0.7,-3.3 1.2,-6.7 1.2,-10 0,-1.7 -0.2,-3.4 -0.6,-5.1 -3.8,8.7 -8.4,17 -13.8,24.8 l 0.2,8.1 -3.6,-3.5 c -8.1,10.8 -17.8,20.5 -28.6,28.6 -4.2,3.1 -8.6,6.1 -12.5,9.5 -9.6,8.5 -13.8,19 -17.8,30.9 z"
                 id="path2672" />
            </g>
            <g
               id="g2680">
              <path
                 style="fill:#47ed00"
                 inkscape:connector-curvature="0"
                 d="m 811.2,420.4 c 0,0.7 0,1.4 0,2.2 0,0.5 0,0.9 0,1.4 0,0.3 0,0.5 0,0.8 0,0.5 0,1 0,1.4 0,1.3 -0.1,2.6 -0.2,3.9 0,0.5 -0.1,1 -0.1,1.5 0,0.4 -0.1,0.8 -0.1,1.2 0,0.4 -0.1,0.8 -0.1,1.1 -0.1,0.6 -0.1,1.3 -0.2,1.9 l -6.4,3.1 6,0.6 c -0.1,1.2 -0.3,2.4 -0.5,3.5 -0.1,0.5 -0.1,0.9 -0.2,1.4 -0.1,0.9 -0.3,1.8 -0.4,2.6 -0.1,0.5 -0.2,1.1 -0.3,1.6 -0.1,0.8 -0.3,1.5 -0.4,2.3 -0.1,0.6 -0.2,1.1 -0.3,1.6 -0.2,1 -0.4,2 -0.6,3 -0.1,0.3 -0.1,0.5 -0.2,0.8 -0.1,0.5 -0.2,1.1 -0.4,1.6 -0.1,0.6 -0.3,1.2 -0.4,1.7 -0.2,0.9 -0.4,1.7 -0.6,2.6 -0.1,0.4 -0.2,0.9 -0.3,1.3 -0.2,0.7 -0.3,1.3 -0.5,2 0,0 0,0 0,0.1 l -6.1,3.3 4.8,1.7 c -0.4,1.4 -0.8,2.7 -1.2,4.1 -0.2,0.7 -0.4,1.4 -0.6,2 -0.2,0.7 -0.4,1.4 -0.7,2.2 -0.4,1.3 -0.8,2.5 -1.2,3.8 -0.2,0.7 -0.5,1.4 -0.7,2.1 -0.1,0.4 -0.3,0.9 -0.4,1.3 -0.5,1.6 -1.1,3.2 -1.7,4.7 -0.5,1.3 -0.9,2.6 -1.4,3.9 -0.5,1.3 -1,2.6 -1.5,3.9 -0.5,1.3 -1,2.6 -1.5,3.9 -1.5,3.8 -3.1,7.7 -5.6,10.9 -2.3,3 -6.2,4.9 -10,5.4 -0.3,0.1 -0.7,0.1 -1,0.1 -1.7,0.2 -5.8,-6.3 -6.6,-7.6 -1.9,-2.9 -3.8,-6.2 -5,-9.5 -2.6,-7.2 -5.4,-14.3 -7.4,-21.8 -0.4,-1.3 -0.7,-2.6 -1,-4 l 5.5,-0.9 -6.1,-2.2 c -1.3,-6.5 -2.1,-13 -2.4,-19.6 l 7,0.6 -7.1,-4.8 c 0,-1.7 0,-3.5 0,-5.2 0.1,-4.6 1,-9.1 2.4,-13.6 l 4.7,1 -3.5,-4.6 c 1.7,-4.7 4,-9.4 6.6,-13.8 l 5.7,1.3 -3.7,-4.9 c 0,0 -0.1,-0.1 -0.1,-0.1 v 0 c 3,-3.7 4.8,-7.3 7.2,-10.7 3,-4.2 6.3,-8 9.8,-11.6 v 0 l 3.5,1.4 v 0 l -1.3,-3.7 c 8.4,-8.4 17.9,-15.8 26.9,-23.7 -0.3,0.4 -0.5,0.9 -0.8,1.3 -3,5.8 -3.8,12.6 -3.4,19.1 0,0.5 0.1,1.1 0.1,1.6 0.1,0.7 0.1,1.3 0.2,2 0.1,1.1 0.3,2.3 0.4,3.4 l -2.8,3.3 3.3,-0.1 c 0.2,1.1 0.4,2.2 0.6,3.4 0.1,0.6 0.2,1.3 0.3,1.9 0.2,0.9 0.3,1.9 0.5,2.8 0.1,0.9 0.3,1.7 0.4,2.6 0.1,0.9 0.2,1.9 0.3,2.8 0.1,0.7 0.2,1.5 0.2,2.2 l -5.5,2.7 5.8,0.5 c 0.1,0.8 0.1,1.6 0.1,2.4 0,0.8 0.1,1.6 0.1,2.4 0,2 0.1,3.6 0.1,5.2 z"
                 id="path2676" />
              <path
                 style="fill:#14d600"
                 inkscape:connector-curvature="0"
                 d="m 811.2,420.4 c 0,0.7 0,1.4 0,2.2 0,0.5 0,0.9 0,1.4 0,0.3 0,0.5 0,0.8 0,0.5 0,1 0,1.4 0,1.3 -0.1,2.6 -0.2,3.9 0,0.5 -0.1,1 -0.1,1.5 0,0.4 -0.1,0.8 -0.1,1.2 0,0.4 -0.1,0.8 -0.1,1.1 -0.1,0.6 -0.1,1.3 -0.2,1.9 l -6.4,3.1 6,0.6 c -0.1,1.2 -0.3,2.4 -0.5,3.5 -0.1,0.5 -0.1,0.9 -0.2,1.4 -0.1,0.9 -0.3,1.8 -0.4,2.6 -0.1,0.5 -0.2,1.1 -0.3,1.6 -0.1,0.8 -0.3,1.5 -0.4,2.3 -0.1,0.6 -0.2,1.1 -0.3,1.6 -0.2,1 -0.4,2 -0.6,3 -0.1,0.3 -0.1,0.5 -0.2,0.8 -0.1,0.5 -0.2,1.1 -0.4,1.6 -0.1,0.6 -0.3,1.2 -0.4,1.7 -0.2,0.9 -0.4,1.7 -0.6,2.6 -0.1,0.4 -0.2,0.9 -0.3,1.3 -0.2,0.7 -0.3,1.3 -0.5,2 0,0 0,0 0,0.1 l -6.1,3.3 4.8,1.7 c -0.4,1.4 -0.8,2.7 -1.2,4.1 -0.2,0.7 -0.4,1.4 -0.6,2 -0.2,0.7 -0.4,1.4 -0.7,2.2 -0.4,1.3 -0.8,2.5 -1.2,3.8 -0.2,0.7 -0.5,1.4 -0.7,2.1 -0.1,0.4 -0.3,0.9 -0.4,1.3 -0.5,1.6 -1.1,3.2 -1.7,4.7 -0.5,1.3 -0.9,2.6 -1.4,3.9 -0.5,1.3 -1,2.6 -1.5,3.9 -0.5,1.3 -1,2.6 -1.5,3.9 -1.5,3.8 -3.1,7.7 -5.6,10.9 -2.3,3 -6.2,4.9 -10,5.4 -0.1,-1.2 -0.2,-2.4 -0.2,-3.5 -0.4,-6.5 -0.2,-13 0.2,-19.5 0.3,-6.4 0.8,-19.3 0.8,-19.3 0,0 1.2,-16.2 2.4,-24.4 1,-7.5 2,-15 3.5,-22.5 3.9,-20.2 10.8,-39.7 20.5,-57.8 1.8,-3.4 3.8,-6.8 6.4,-9.5 -3,5.8 -3.8,12.6 -3.4,19.1 0,0.5 0.1,1.1 0.1,1.6 0.1,0.7 0.1,1.3 0.2,2 0.1,1.1 0.3,2.3 0.4,3.4 l -2.8,3.3 3.3,-0.1 c 0.2,1.1 0.4,2.2 0.6,3.4 0.1,0.6 0.2,1.3 0.3,1.9 0.2,0.9 0.3,1.9 0.5,2.8 0.1,0.9 0.3,1.7 0.4,2.6 0.1,0.9 0.2,1.9 0.3,2.8 0.1,0.7 0.2,1.5 0.2,2.2 l -5.5,2.7 5.8,0.5 c 0.1,0.8 0.1,1.6 0.1,2.4 0,0.8 0.1,1.6 0.1,2.4 -0.3,1.9 -0.2,3.5 -0.2,5.1 z"
                 id="path2678" />
            </g>
            <g
               id="g2688">
              <g
                 id="g2684">
                <path
                   style="fill:#22db00"
                   inkscape:connector-curvature="0"
                   d="m 895.7,493.8 c -0.3,0 -0.6,0 -0.9,-0.1 -9.5,-0.5 -19,-0.1 -28.4,1.3 l -7.2,-3.8 1.6,4.8 c -8.2,1.5 -16.3,3.8 -24.2,6.7 l -6.2,-5.4 0.4,7.7 c -2.8,1.2 -5.6,2.5 -8.3,3.8 -4.7,2.4 -9.2,5 -14.1,6.9 -12,4.8 -23.2,3.9 -35.7,2.2 -0.1,0 -0.1,0 -0.2,0 -0.2,0 9.7,-23.6 11.2,-25.7 5.3,-7.9 12.4,-11.6 20.9,-15.3 4.7,-2.1 9.7,-4 14.8,-5.6 l 1.5,4.6 3.2,-6 c 12.5,-3.4 25.7,-4.5 38,-0.7 0,0 0,0 0,0 l -0.2,6.8 5.3,-4.9 c 11.2,4.8 20.3,13.6 28.5,22.7 z"
                   id="path2682" />
              </g>
              <path
                 style="fill:#009c15"
                 inkscape:connector-curvature="0"
                 d="m 894.8,493.8 c -9.5,-0.5 -19,-0.1 -28.4,1.3 l -7.2,-3.8 1.6,4.8 c -8.2,1.5 -16.3,3.8 -24.2,6.7 l -6.2,-5.4 0.4,7.7 c -2.8,1.2 -5.6,2.5 -8.3,3.8 -4.7,2.4 -9.2,5 -14.1,6.9 -12,4.8 -23.2,3.9 -35.7,2.2 2.7,-2.6 5.8,-4.8 9,-6.9 19.8,-13.4 42.2,-24.2 66.1,-26.2 11.1,-1 22.4,0 33.2,2.8 3.3,0.9 6.5,1.9 9.5,3.5 1.5,0.6 2.9,1.5 4.3,2.6 z"
                 id="path2686" />
            </g>
            <g
               id="g2694">
              <path
                 style="fill:#0ecd00"
                 inkscape:connector-curvature="0"
                 d="m 778.7,518.5 c -0.1,0 -0.1,0 -0.2,0 -12.5,1.3 -23.7,1.8 -35.6,-3.4 -3.9,-1.7 -7.6,-3.9 -11.3,-6 l 3.9,-6.1 -7.1,4.4 c -6.3,-3.4 -12.9,-6.3 -19.7,-8.7 l 4.2,-6.6 -8.4,5.1 v 0 c -4.4,-1 -8.8,-2.6 -13.3,-3.5 l 1.7,-4.7 -7.3,3.6 c -9.3,-1.7 -18.8,-2.4 -28.3,-2.2 -0.3,0 -0.6,0 -0.9,0 8.4,-8.8 17.8,-17.4 29,-21.8 l 5.2,5.1 0.1,-6.8 c 0,0 0,0 0,0 12.4,-3.3 25.6,-1.8 38,2 l 3,6.1 1.7,-4.6 c 5.1,1.8 10,3.9 14.6,6.2 8.4,4.1 15.3,8 20.4,16.1 1.4,1.9 10.5,25.7 10.3,25.8 z"
                 id="path2690" />
              <path
                 style="fill:#16b200"
                 inkscape:connector-curvature="0"
                 d="m 778.5,518.5 c -12.5,1.3 -23.7,1.8 -35.6,-3.4 -3.9,-1.7 -7.6,-3.9 -11.3,-6 l 3.9,-6.1 -7.1,4.4 c -6.3,-3.4 -12.9,-6.3 -19.7,-8.7 l 4.2,-6.6 -8.4,5.1 v 0 c -4.4,-1 -8.8,-2.6 -13.3,-3.5 l 1.7,-4.7 -7.3,3.6 c -9.3,-1.7 -18.8,-2.4 -28.3,-2.2 1.4,-1 2.8,-1.9 4.4,-2.6 3,-1.5 6.3,-2.4 9.6,-3.1 10.9,-2.5 22.2,-3 33.3,-1.7 23.8,2.9 45.8,14.4 65.1,28.5 3.1,2 6.2,4.3 8.8,7 z"
                 id="path2692" />
            </g>
          </g>
          <path
             sodipodi:nodetypes="cccccc"
             inkscape:connector-curvature="0"
             id="rect3224"
             d="m 151.27935,81.695651 -8.49862,-0.19883 0.28295,-12.094176 5.4993,-2.55925 2.99932,2.75808 z"
             style="fill:#8000f1;fill-opacity:1;stroke:none;stroke-width:1.4652009;stroke-miterlimit:4;stroke-dasharray:none;stroke-opacity:1" />
        </g>
        <g
           transform="matrix(0.03645107,0.30562748,-0.29561292,0.03768594,299.2038,-300.39896)"
           id="g1468">
          <g
             transform="translate(653.12499,-162.5)"
             id="g1382">
            <path
               style="fill:#833500"
               inkscape:connector-curvature="0"
               d="m 741.4,763.4 h -0.2 c 0,0 0,0 0.2,0 z"
               id="path1364" />
          </g>
        </g>
      </g>
      <path
         style="fill:#a377e8;stroke-width:0.11686001"
         inkscape:connector-curvature="0"
         d="m 91.022022,71.352785 c -1.304116,-0.73458 -2.831553,-0.543172 -4.034917,0.50347 -0.226082,0.198117 -0.431859,0.406827 -0.612618,0.682408 -0.697885,1.054921 -0.796497,2.658087 -0.808923,4.131362 -0.02053,2.303091 0.04617,4.604637 0.21923,6.901167 0.03301,0.393898 0.06721,0.80187 0.193482,1.150287 0.290671,0.804172 0.97626,1.108254 1.592817,1.167785 0.635681,0.05606 1.275157,-0.07423 1.880182,-0.383932 0.2511,-0.131245 0.499843,-0.290622 0.712825,-0.529204 0.230927,-0.256122 0.396228,-0.600311 0.56035,-0.958563 1.037388,-2.216204 1.776385,-4.749605 2.157,-7.38937 0.124032,-0.836561 0.205102,-1.722455 0.05786,-2.552653 -0.253081,-1.28229 -1.051459,-2.237149 -1.917288,-2.722757 z"
         id="path1380" />
    </g>
  </g>
</svg>
