<?xml version="1.0" encoding="UTF-8" standalone="no"?>
<!-- Created with Inkscape (http://www.inkscape.org/) -->

<svg
   xmlns:osb="http://www.openswatchbook.org/uri/2009/osb"
   xmlns:dc="http://purl.org/dc/elements/1.1/"
   xmlns:cc="http://creativecommons.org/ns#"
   xmlns:rdf="http://www.w3.org/1999/02/22-rdf-syntax-ns#"
   xmlns:svg="http://www.w3.org/2000/svg"
   xmlns="http://www.w3.org/2000/svg"
   xmlns:sodipodi="http://sodipodi.sourceforge.net/DTD/sodipodi-0.dtd"
   xmlns:inkscape="http://www.inkscape.org/namespaces/inkscape"
   width="108.70358mm"
   height="64.412506mm"
   viewBox="0 0 108.70358 64.412506"
   version="1.1"
   id="svg8"
   inkscape:version="0.92.5 (2060ec1f9f, 2020-04-08)"
   sodipodi:docname="poster-boy.svg">
  <defs
     id="defs2">
    <linearGradient
       id="linearGradient3272"
       osb:paint="solid">
      <stop
         style="stop-color:#808000;stop-opacity:1;"
         offset="0"
         id="stop3270" />
    </linearGradient>
    <inkscape:perspective
       sodipodi:type="inkscape:persp3d"
       inkscape:vp_x="176.27362 : -90.741059 : 1"
       inkscape:vp_y="-3435.4048 : 6.039081 : 0"
       inkscape:vp_z="111.22241 : 72.79359 : 1"
       inkscape:persp3d-origin="493.61711 : 11.362717 : 1"
       id="perspective827" />
    <clipPath
       clipPathUnits="userSpaceOnUse"
       id="clipPath1593">
      <path
         style="fill:none;stroke:#000000;stroke-width:1.8516227px;stroke-linecap:butt;stroke-linejoin:miter;stroke-opacity:1"
         d="M -115.63103,674.62253 286.73074,265.63584 659.52625,697.00421 Z"
         id="path1595"
         inkscape:connector-curvature="0"
         clip-path="none" />
    </clipPath>
  </defs>
  <sodipodi:namedview
     id="base"
     pagecolor="#ffffff"
     bordercolor="#666666"
     borderopacity="1.0"
     inkscape:pageopacity="0.0"
     inkscape:pageshadow="2"
     inkscape:zoom="0.64"
     inkscape:cx="83.4097"
     inkscape:cy="115.70262"
     inkscape:document-units="mm"
     inkscape:current-layer="layer1"
     showgrid="false"
     inkscape:snap-global="false"
     inkscape:window-width="1366"
     inkscape:window-height="683"
     inkscape:window-x="0"
     inkscape:window-y="0"
     inkscape:window-maximized="1" />
  <metadata
     id="metadata5">
    <rdf:RDF>
      <cc:Work
         rdf:about="">
        <dc:format>image/svg+xml</dc:format>
        <dc:type
           rdf:resource="http://purl.org/dc/dcmitype/StillImage" />
        <dc:title />
      </cc:Work>
    </rdf:RDF>
  </metadata>
  <g
     inkscape:label="Layer 1"
     inkscape:groupmode="layer"
     id="layer1"
     transform="translate(-52.352433,-45.69407)">
    <g
       id="g1678"
       transform="matrix(0.77181351,0,0,0.77181351,24.348462,17.775802)">
      <g
         transform="matrix(0.09307441,0,0,0.09307441,147.47364,75.236647)"
         id="g1569">
        <g
           clip-path="url(#clipPath1593)"
           transform="matrix(1.5352521,0,0,1.5352521,-470.19991,-921.84158)"
           id="g1368">
          <g
             id="g1364">
            <polygon
               style="fill:#f7931e"
               points="349.4,428.6 337.8,432.8 337.3,430.6 351,425.6 356.9,449.8 354.7,449.8 "
               id="polygon1282" />
            <g
               id="g1362">
              <g
                 id="g1338">
                <path
                   style="fill:#bc8ff9"
                   inkscape:connector-curvature="0"
                   d="m 375.1,466.9 c -0.3,6.4 -2,10.3 -2,10.3 l -14,11.1 c 0,0 -7.4,50.7 -8.4,57.4 -1,6.7 -7.8,12.1 -21.3,9.9 -13.6,-2.2 -21.7,-5 -21.7,-5 l 2.7,-32.3 14.3,2 2.1,0.6 5.3,1.5 10.9,-34.2 3,-11.1 -0.8,-4.8 11.5,-2.7 13,-7.3 4.9,-2.9 c 0,0 0.9,1.1 0.5,7.5 z"
                   id="path1284" />
                <path
                   style="fill:#6000c1"
                   inkscape:connector-curvature="0"
                   d="m 276.5,501.4 c 0,0 50.5,17 43.5,18.3 -7,1.3 -12.7,32.7 -12.7,32.7 l -27.7,-10 z"
                   id="path1286" />
                <g
                   id="g1296">
                  <path
                     style="fill:#6f00e5"
                     inkscape:connector-curvature="0"
                     d="m 385,699 c -0.1,11 -24.4,171.5 -24.4,171.5 l -26.6,-1 c 0,0 16.7,-139.6 16.7,-152.5 0,-13.2 -9.9,-26.1 -9.9,-26.1 0,0 0,18.6 0,26.1 0,7.5 -24.3,153 -24.3,153 l -21.7,1.5 v 0 L 288,872 c 0,0 13.8,-131.5 14,-144.5 0.2,-13 -8,-26.2 -25.5,-27.5 -17.5,-1.3 -55.5,5 -77.3,1.1 -21.9,-3.9 -18.7,-89.2 -10.8,-129.1 0.1,-0.5 0.2,-1.1 0.3,-1.6 7.9,-39.2 7.4,-69.7 33.3,-77.4 15.9,-4.7 45.9,4.2 45.9,4.2 0,0 10.1,2.9 19,12.9 8.9,10 9.2,35.9 6.7,47.4 -2.5,11.5 -6.9,92 -3.1,98.1 3.9,6.2 52.4,10.8 68.6,17.4 16.2,6.6 26,15 25.9,26 z"
                     id="path1288" />
                  <polygon
                     style="fill:#6300d6"
                     points="272.3,667.6 278.3,666.6 332,682 "
                     id="polygon1290" />
                  <path
                     style="fill:#6300d6"
                     inkscape:connector-curvature="0"
                     d="m 267.6,665.1 c 22.4,-5.4 24.7,-7.1 24.7,-7.1 l -65.1,11.6 c 0.1,0 18.1,0.9 40.4,-4.5 z"
                     id="path1292" />
                  <path
                     style="fill:#6300d6"
                     inkscape:connector-curvature="0"
                     d="m 320.5,737 c -2,9.2 -11,50.8 -11,50.8 l -14.7,83.8 v 0 L 288,872 c 0,0 13.8,-131.5 14,-144.5 0,-3 -0.4,-6.1 -1.3,-9 -1.9,-6.3 -6,-11.9 -12.5,-15.3 -3.3,-1.7 -7.2,-2.9 -11.8,-3.2 -17.5,-1.3 -55.5,5 -77.3,1.1 -21.9,-3.9 -18.7,-89.2 -10.8,-129.1 0.1,-0.5 0.2,-1.1 0.3,-1.6 l 12.7,59.6 20.2,14.5 -19.5,-1.8 15.5,6.3 H 203 l 11.1,13.8 20.6,6.6 -18.9,9.4 33.4,1.2 12.2,-4.3 -6.4,4.8 18.2,1.5 14.3,-4.5 -3.2,6.5 c 0,0 2.9,2.4 6.8,3.3 3.8,0.8 25.4,5.3 28.1,9.9 2.8,4.6 3.3,30.6 1.3,39.8 z"
                     id="path1294" />
                </g>
                <path
                   style="fill:#bc8ff9"
                   inkscape:connector-curvature="0"
                   d="m 328.5,597.5 c -2.4,2.4 -12.4,-6.6 -12.4,-6.6 l -12.5,-0.1 c 0,0 -7.8,7 -13.7,9.8 -5.9,2.9 -9,1.5 -9,1.5 0,0 -0.2,0 -0.5,0 -6.4,0.3 -68.1,3.4 -81.1,-1.6 -0.9,-0.3 -1.6,-0.7 -2,-1.1 -6.6,-6.9 -3.3,-41.2 -3.3,-41.2 l 34,3.7 c 0,0 0.3,14.6 -1.7,20.8 13.5,-0.6 54.7,5.6 54.7,5.6 l 21.6,-6.7 14.6,3.9 c 0.1,0.1 13.7,9.6 11.3,12 z"
                   id="path1298" />
                <path
                   style="fill:#6000c1"
                   inkscape:connector-curvature="0"
                   d="m 220,499.1 c 25.5,4.1 12.9,66.4 10.3,70.2 -2.6,3.7 -33.9,0.4 -36.9,-3.5 -3,-3.9 1.1,-70.7 26.6,-66.7 z"
                   id="path1300" />
                <path
                   style="fill:#a377e8"
                   inkscape:connector-curvature="0"
                   d="m 243.5,466.4 -14,25.6 c 0,0 6.6,8.6 26.4,16.3 19.8,7.7 12,-11.1 12,-11.1 l 3.7,-17.2 z"
                   id="path1302" />
                <path
                   style="fill:#bc8ff9"
                   inkscape:connector-curvature="0"
                   d="m 233,449.3 c 0,0 3.5,20 10.5,28 7,8 18.8,15.3 29.5,11 10.7,-4.3 13.8,-17 15.3,-25.3 1.5,-8.3 3.8,-29 3.8,-30.3 0,-1.3 -0.3,-15 0,-16.3 0.3,-1.3 -10.7,-10.5 -11,-11 -0.3,-0.5 -19.7,-1.7 -19.7,-1.7 l -15.2,1.7 -6.7,8.5 -6.7,22.9 v 12.5 z"
                   id="path1304" />
                <path
                   style="fill:#6f00e5"
                   inkscape:connector-curvature="0"
                   d="m 237,440 h 5 l 3.3,-13.8 c 0,0 6,-3.3 6.7,-5.6 0.7,-2.3 -0.9,-6.4 -0.9,-6.4 0,0 8.9,5.1 17.2,7.5 8.3,2.4 22.4,-3.3 22.4,-3.3 l 1.2,17.7 c 0,0 0.7,-23.1 3.2,-25.5 2.8,-2.8 5.3,-6.7 5.3,-6.7 l -11.2,-1.4 3,-1.8 -12.9,-2.4 3.6,-1.5 -11.5,-1.5 4.5,-1.5 c 0,0 -25.1,-1.5 -34.3,7.3 -1.9,1.8 -0.9,3.8 -0.9,3.8 0,0 -5,1.2 -6.8,2.9 -1.8,1.8 -3.4,18.2 -3.4,18.2 l 4.9,2.3 c 0,0 1.8,0.1 2.2,0.7"
                   id="path1306" />
                <g
                   id="g1314">
                  <path
                     style="fill:#bc8ff9"
                     inkscape:connector-curvature="0"
                     d="m 237,439 c 0,-1.5 1.8,-13.8 -6.5,-13.8 -8.3,0 -8.1,12.8 -6.9,17.8 1.2,5 3.4,9 6.9,9.4 3.5,0.4 6.5,-13.4 6.5,-13.4 z"
                     id="path1308" />
                  <path
                     style="fill:#a377e8"
                     inkscape:connector-curvature="0"
                     d="m 227,436.1 3.1,-3.8 1.9,5.5 0.3,-3.7 c 0,0 0,-3.6 -2.2,-3.6 -2.2,0 -2.6,3.3 -2.6,3.3 z"
                     id="path1310" />
                  <path
                     style="fill:#a377e8"
                     inkscape:connector-curvature="0"
                     d="m 231.2,441.6 -1.9,2.4 -1.1,-3.5 -0.2,2.4 c 0,0 0,2.3 1.3,2.3 1.3,0 1.6,-2.1 1.6,-2.1 z"
                     id="path1312" />
                </g>
                <polygon
                   style="fill:#2d2d2d"
                   points="369.7,491 349.6,491 346.6,450.4 344,450.4 344.9,448.3 373.9,448.3 375.1,450.4 372.7,450.4 "
                   id="polygon1316" />
                <polygon
                   style="fill:#a377e8"
                   points="346,477.2 345.8,484.1 334,536.1 331.7,524.2 326.8,520.9 332.1,522.5 343,488.3 "
                   id="polygon1318" />
                <g
                   id="g1334">
                  <path
                     style="fill:#bc8ff9"
                     inkscape:connector-curvature="0"
                     d="m 346,464.9 c 0.6,-2.3 4.5,-4.9 4.5,-4.9 0,0 0.9,-1.3 2.5,0 1.6,1.3 0.8,2.8 0.8,2.8 0,0 -4.4,5.4 -4.6,5.8 -0.2,0.4 -1,4.6 -1,4.6 l 0.2,3 c 0,0 -2.1,-1.6 -3.2,-3.7 -1.1,-2.1 0.1,-5.4 0.8,-7.6 z"
                     id="path1320" />
                  <path
                     style="fill:#a377e8"
                     inkscape:connector-curvature="0"
                     d="m 349.2,464.2 c -1.6,-1.1 0.8,-3.2 0.8,-3.2 0,0 1,-1.3 2.5,-0.4 1.5,0.9 -0.1,2.9 -0.1,2.9 0,0 -1.6,1.8 -3.2,0.7 z"
                     id="path1322" />
                  <path
                     style="fill:#bc8ff9"
                     inkscape:connector-curvature="0"
                     d="m 374.6,459.4 c 0,0 -9.3,-0.9 -9.3,2.2 0,3.1 8.7,1.8 8.7,1.8 -3.6,0.5 -8.7,-1 -8.7,2.8 0,3.8 8.3,2.6 8.3,2.6 0,0 -6.1,-0.6 -6.4,2.2 -0.3,2.8 6.1,2.4 6.1,2.4 0,0 -5.2,-0.3 -5.1,1.8 0.1,2.1 4.8,2.1 4.8,2.1 z"
                     id="path1324" />
                  <path
                     style="fill:#a377e8"
                     inkscape:connector-curvature="0"
                     d="m 370.3,466.5 c 0.2,1.9 -2.9,1.5 -2.9,1.5 0,0 -1.6,0.1 -2,-1.6 -0.4,-1.7 2.3,-1.8 2.3,-1.8 0,0 2.4,0 2.6,1.9 z"
                     id="path1326" />
                  <path
                     style="fill:#a377e8"
                     inkscape:connector-curvature="0"
                     d="m 369.7,461.4 c 0.2,1.7 -2.6,1.4 -2.6,1.4 0,0 -1.5,0.1 -1.7,-1.4 -0.2,-1.5 2.1,-1.7 2.1,-1.7 0,0 2.1,0 2.2,1.7 z"
                     id="path1328" />
                  <path
                     style="fill:#a377e8"
                     inkscape:connector-curvature="0"
                     d="m 371.1,471.3 c 0.2,1.5 -2.3,1.2 -2.3,1.2 0,0 -1.3,0.1 -1.5,-1.2 -0.3,-1.3 1.8,-1.5 1.8,-1.5 0,0 1.9,0 2,1.5 z"
                     id="path1330" />
                  <path
                     style="fill:#a377e8"
                     inkscape:connector-curvature="0"
                     d="m 370.8,475.4 c 0.1,1.1 -1.6,0.8 -1.6,0.8 0,0 -0.9,0 -1.1,-0.9 -0.2,-0.9 1.3,-1 1.3,-1 0,0 1.3,0 1.4,1.1 z"
                     id="path1332" />
                </g>
                <path
                   style="fill:#a377e8"
                   inkscape:connector-curvature="0"
                   d="m 282.2,599.5 -1.7,2.7 c -6.4,0.3 -68.1,3.4 -81.1,-1.6 l 8.3,-3.6 z"
                   id="path1336" />
              </g>
              <g
                 id="g1360">
                <polygon
                   style="fill:#bc8ff9"
                   points="291,875 291,892 310.1,898.5 313,873.5 "
                   id="polygon1340" />
                <polygon
                   style="fill:#6300d6"
                   points="284.2,877.5 322.3,877.5 319.6,866 287.1,866.6 "
                   id="polygon1342" />
                <polygon
                   style="fill:#bc8ff9"
                   points="336,872.4 336,894 356,894 358,870.6 "
                   id="polygon1344" />
                <polygon
                   style="fill:#6300d6"
                   points="328.2,873.5 366.3,873.5 363.6,862 331.1,862.6 "
                   id="polygon1346" />
                <g
                   id="g1352">
                  <path
                     style="fill:#6f1a00"
                     inkscape:connector-curvature="0"
                     d="m 398.8,908.8 c 0,0 -10.5,10 -22,10 -11.5,0 -30.5,-7.1 -30.5,-7.1 l -13.7,-6.6 -3.6,-2.7 4.3,-15.3 h 2.8 c 0,0 -1.3,3.4 6.6,5.2 7.8,1.9 7.4,0 7.4,0 l 10.7,-1.3 6.7,6.5 z"
                     id="path1348" />
                  <path
                     style="fill:#bc8ff9"
                     inkscape:connector-curvature="0"
                     d="m 400.8,916 c -2,3.8 -13,8.8 -25.3,8.8 -12.3,0 -26.7,-8.4 -30.9,-10 -4.2,-1.6 -10.7,-6.1 -13.4,-7.6 -5.6,-2.9 -2.2,-5.6 -2.2,-5.6 0,0 11.5,7.9 18,9.7 6.7,2.8 18.3,7.4 29.8,7.4 11.5,0 22,-10 22,-10 0,0 3.9,3.6 2,7.3 z"
                     id="path1350" />
                </g>
                <g
                   id="g1358">
                  <path
                     style="fill:#6f1a00"
                     inkscape:connector-curvature="0"
                     d="m 353.8,908.8 c 0,0 -10.5,10 -22,10 -11.5,0 -30.5,-7.1 -30.5,-7.1 l -13.7,-6.6 -3.6,-2.7 4.3,-15.3 h 2.8 c 0,0 -1.3,3.4 6.6,5.2 7.8,1.9 7.4,0 7.4,0 l 10.7,-1.3 6.7,6.5 z"
                     id="path1354" />
                  <path
                     style="fill:#bc8ff9"
                     inkscape:connector-curvature="0"
                     d="m 355.8,916 c -2,3.8 -13,8.8 -25.3,8.8 -12.3,0 -26.7,-8.4 -30.9,-10 -4.2,-1.6 -10.7,-6.1 -13.4,-7.6 -5.6,-2.9 -2.2,-5.6 -2.2,-5.6 0,0 11.5,7.9 18,9.7 6.7,2.8 18.3,7.4 29.8,7.4 11.5,0 22,-10 22,-10 0,0 3.9,3.6 2,7.3 z"
                     id="path1356" />
                </g>
              </g>
            </g>
          </g>
          <rect
             style="fill:#4f4f4f"
             x="346.10001"
             y="450.39999"
             width="27"
             height="2.5999999"
             id="rect1366" />
        </g>
      </g>
      <g
         id="g1691">
        <g
           id="g829"
           style="fill:#ffffff;fill-opacity:1;stroke:#ff7f2a;stroke-width:9.90236187;stroke-miterlimit:4;stroke-dasharray:none;stroke-opacity:1">
          <path
             inkscape:connector-curvature="0"
             d="m 61.060513,109.9351 97.548337,0.17148 2.13723,-31.220006 -55.43445,-0.09745 z"
             style="fill:#ffffff;fill-opacity:1;fill-rule:evenodd;stroke:none;stroke-width:17.16980171;stroke-linejoin:round"
             id="path3700" />
          <path
             inkscape:connector-curvature="0"
             d="m 105.31163,78.789126 -3.56172,-3.53972 57.03577,0.100263 1.9604,3.536905 z"
             style="fill:#ffffff;fill-opacity:1;fill-rule:evenodd;stroke:none;stroke-width:17.16980171;stroke-linejoin:round"
             id="path3702" />
          <path
             inkscape:connector-curvature="0"
             d="m 61.060513,109.9351 -8.70808,-4.74988 49.397477,-29.935814 3.56172,3.53972 z"
             style="fill:#ffffff;fill-opacity:1;fill-rule:evenodd;stroke:none;stroke-width:17.16980171;stroke-linejoin:round"
             id="path3704" />
          <path
             inkscape:connector-curvature="0"
             d="m 158.60885,110.10658 -3.6382,-4.74097 3.81503,-30.015941 1.9604,3.536905 z"
             style="fill:#ffffff;fill-opacity:1;fill-rule:evenodd;stroke:none;stroke-width:17.16980171;stroke-linejoin:round"
             id="path3706" />
          <path
             inkscape:connector-curvature="0"
             d="m 52.352433,105.18522 102.618217,0.18039 3.81503,-30.015941 -57.03577,-0.100263 z"
             style="fill:#ffffff;fill-opacity:1;fill-rule:evenodd;stroke:none;stroke-width:17.16980171;stroke-linejoin:round"
             id="path3708" />
          <path
             inkscape:connector-curvature="0"
             d="m 61.060513,109.9351 -8.70808,-4.74988 102.618217,0.18039 3.6382,4.74097 z"
             style="fill:#ffffff;fill-opacity:1;fill-rule:evenodd;stroke:none;stroke-width:17.16980171;stroke-linejoin:round"
             id="path3710" />
        </g>
        <path
           id="rect815"
           d="m 94.69082,70.025299 h 26.64732 c 1.57049,0 2.83482,1.26433 2.83482,2.834822 v 12.851191 c 0,1.570491 -1.26433,2.834821 -2.83482,2.834821 H 94.69082 c -1.570491,0 -2.834821,-1.26433 -2.834821,-2.834821 V 72.860121 c 0,-1.570492 1.26433,-2.834822 2.834821,-2.834822 z"
           style="fill:#bc8ff9;fill-opacity:1;stroke:#6000c1;stroke-width:2.61999989;stroke-miterlimit:4;stroke-dasharray:none;stroke-opacity:1"
           inkscape:connector-curvature="0" />
        <path
           id="rect823"
           d="m 107.49383,88.970421 h 1.2303 v 1.797261 h -1.2303 z"
           style="fill:#8000f1;fill-opacity:1;stroke:#6000c1;stroke-width:1.95666468;stroke-miterlimit:4;stroke-dasharray:none;stroke-opacity:1"
           inkscape:connector-curvature="0" />
        <path
           id="rect825"
           d="m 106.03011,92.703865 h 4.15774 v 0.377976 h -4.15774 z"
           style="fill:#8000f1;fill-opacity:1;stroke:#6000c1;stroke-width:2.61999989;stroke-miterlimit:4;stroke-dasharray:none;stroke-opacity:1"
           inkscape:connector-curvature="0" />
        <g
           id="g2324"
           style="fill:#6000c1;fill-opacity:1;stroke:#6000c1;stroke-opacity:1"
           transform="matrix(1.0189527,0,0,0.69757181,82.660225,43.933527)">
          <path
             id="rect2315"
             d="M 14.031651,50.872406 H 25.14004 v 6.723499 H 14.031651 Z"
             style="fill:#6000c1;fill-opacity:1;stroke:#6000c1;stroke-width:2.61999989;stroke-miterlimit:4;stroke-dasharray:none;stroke-opacity:1"
             inkscape:connector-curvature="0" />
          <path
             id="rect2317"
             d="m 28.999886,43.564255 h 6.723498 v 14.031649 h -6.723498 z"
             style="fill:#6000c1;fill-opacity:1;stroke:#6000c1;stroke-width:2.61999989;stroke-miterlimit:4;stroke-dasharray:none;stroke-opacity:1"
             inkscape:connector-curvature="0" />
          <path
             id="rect2319"
             d="M 14.031651,43.489746 H 25.14004 v 0.876978 H 14.031651 Z"
             style="fill:#6000c1;fill-opacity:1;stroke:#6000c1;stroke-width:2.61999989;stroke-miterlimit:4;stroke-dasharray:none;stroke-opacity:1"
             inkscape:connector-curvature="0" />
        </g>
        <path
           inkscape:connector-curvature="0"
           style="fill:#8000f1;fill-opacity:1;stroke:#6000c1;stroke-width:2.05406356;stroke-miterlimit:4;stroke-dasharray:none;stroke-opacity:1"
           d="m 89.168808,98.812294 h 37.691342 c 1.29559,0 2.33861,1.043019 2.33861,2.338606 v 2.61222 c 0,1.29559 -1.04302,2.33861 -2.33861,2.33861 H 89.168808 c -1.295589,0 -2.338608,-1.04302 -2.338608,-2.33861 v -2.61222 c 0,-1.295587 1.043019,-2.338606 2.338608,-2.338606 z"
           id="rect2326" />
        <path
           inkscape:connector-curvature="0"
           style="fill:#6000c1;fill-opacity:1;stroke:#6000c1;stroke-width:1.93348086;stroke-miterlimit:4;stroke-dasharray:none;stroke-opacity:1"
           d="m 137.92696,97.875023 h 0.10186 c 1.29559,0 2.33861,1.043019 2.33861,2.338607 v 3.60978 c 0,1.29559 -1.04302,2.33861 -2.33861,2.33861 h -0.10186 c -1.29559,0 -2.33861,-1.04302 -2.33861,-2.33861 v -3.60978 c 0,-1.295588 1.04302,-2.338607 2.33861,-2.338607 z"
           id="rect2337" />
        <path
           style="fill:#003380;stroke:#003380;stroke-width:0.12184642px;stroke-linecap:butt;stroke-linejoin:miter;stroke-opacity:1"
           d="m 138.08419,97.414392 v 3.750788 m -2.44491,0.1705 h 4.67722"
           id="path2339"
           inkscape:connector-curvature="0" />
        <g
           id="g2696"
           transform="matrix(0.09124242,0,0,0.09124242,70.318558,32.560784)">
          <g
             id="g2668">
            <path
               id="path2664"
               d="m 786.2,514.5 c 0,0.2 -24.9,-5.8 -27.2,-6.8 -8.7,-4 -13.4,-10.3 -18.6,-18.1 -2.8,-4.3 -5.6,-8.9 -8,-13.7 l 4.3,-2.3 -6.5,-2.2 c -2.9,-6.4 -5.2,-13.1 -6.4,-19.9 l 7.6,0.9 -8.2,-5 c -0.5,-4.4 -0.5,-8.9 0.1,-13.4 0,0 0,0 0,0 l 6.7,-1 -5.7,-4.5 c 3,-11.7 10.2,-22.1 17.9,-31.6 0,0.3 0.1,0.6 0.1,0.9 1,9.4 3,18.7 5.9,27.8 l -2.6,7.7 4.4,-2.3 c 4.6,12.7 11,24.8 18.9,35.7 3.1,4.2 6.4,8.3 9.1,12.8 6.7,11.1 7.7,22.3 8,34.8 0.2,0.1 0.2,0.1 0.2,0.2 z"
               inkscape:connector-curvature="0"
               style="fill:#25c900" />
            <path
               id="path2666"
               d="m 786.2,514.3 c -3,-2.3 -5.7,-5 -8.3,-7.7 -16.5,-17.4 -30.8,-37.7 -36.7,-60.9 -2.8,-10.8 -3.7,-22.1 -2.7,-33.3 0.3,-3.4 0.8,-6.7 1.8,-9.9 0.5,-1.6 1.2,-3.2 2,-4.7 1,9.4 3,18.7 5.9,27.8 l -2.6,7.7 4.4,-2.3 c 4.6,12.7 11,24.8 18.9,35.7 3.1,4.2 6.4,8.3 9.1,12.8 6.9,11 7.9,22.2 8.2,34.8 z"
               inkscape:connector-curvature="0"
               style="fill:#009c15" />
          </g>
          <g
             id="g2674">
            <path
               id="path2670"
               d="m 768.6,510.4 c -0.1,0.2 25.5,1.8 28,1.5 9.5,-1.2 15.9,-5.9 23.1,-11.8 4,-3.3 7.9,-6.9 11.7,-10.7 l -3.5,-3.4 6.8,-0.2 c 8.6,-9.7 15.5,-21 17.6,-33.7 0,0 0,0 0,0 l -6.2,-2.9 6.7,-2.6 c 0.6,-12.1 -3.3,-24.2 -7.8,-35.5 -0.1,0.3 -0.2,0.5 -0.3,0.8 -3.8,8.7 -8.4,17 -13.8,24.8 l 0.2,8.1 -3.6,-3.5 c -8.1,10.8 -17.8,20.5 -28.6,28.6 -4.2,3.1 -8.6,6.1 -12.5,9.5 -9.7,8.6 -13.9,19 -17.9,30.9 0.2,-0.1 0.2,0 0.1,0.1 z"
               inkscape:connector-curvature="0"
               style="fill:#1fc900" />
            <path
               id="path2672"
               d="m 768.7,510.2 c 3.5,-1.3 6.9,-3.1 10.2,-4.9 20.9,-11.8 40.5,-27 53,-47.4 5.8,-9.5 10,-20.1 12.3,-31 0.7,-3.3 1.2,-6.7 1.2,-10 0,-1.7 -0.2,-3.4 -0.6,-5.1 -3.8,8.7 -8.4,17 -13.8,24.8 l 0.2,8.1 -3.6,-3.5 c -8.1,10.8 -17.8,20.5 -28.6,28.6 -4.2,3.1 -8.6,6.1 -12.5,9.5 -9.6,8.5 -13.8,19 -17.8,30.9 z"
               inkscape:connector-curvature="0"
               style="fill:#00ae0d" />
          </g>
          <g
             id="g2680">
            <path
               id="path2676"
               d="m 811.2,420.4 c 0,0.7 0,1.4 0,2.2 0,0.5 0,0.9 0,1.4 0,0.3 0,0.5 0,0.8 0,0.5 0,1 0,1.4 0,1.3 -0.1,2.6 -0.2,3.9 0,0.5 -0.1,1 -0.1,1.5 0,0.4 -0.1,0.8 -0.1,1.2 0,0.4 -0.1,0.8 -0.1,1.1 -0.1,0.6 -0.1,1.3 -0.2,1.9 l -6.4,3.1 6,0.6 c -0.1,1.2 -0.3,2.4 -0.5,3.5 -0.1,0.5 -0.1,0.9 -0.2,1.4 -0.1,0.9 -0.3,1.8 -0.4,2.6 -0.1,0.5 -0.2,1.1 -0.3,1.6 -0.1,0.8 -0.3,1.5 -0.4,2.3 -0.1,0.6 -0.2,1.1 -0.3,1.6 -0.2,1 -0.4,2 -0.6,3 -0.1,0.3 -0.1,0.5 -0.2,0.8 -0.1,0.5 -0.2,1.1 -0.4,1.6 -0.1,0.6 -0.3,1.2 -0.4,1.7 -0.2,0.9 -0.4,1.7 -0.6,2.6 -0.1,0.4 -0.2,0.9 -0.3,1.3 -0.2,0.7 -0.3,1.3 -0.5,2 0,0 0,0 0,0.1 l -6.1,3.3 4.8,1.7 c -0.4,1.4 -0.8,2.7 -1.2,4.1 -0.2,0.7 -0.4,1.4 -0.6,2 -0.2,0.7 -0.4,1.4 -0.7,2.2 -0.4,1.3 -0.8,2.5 -1.2,3.8 -0.2,0.7 -0.5,1.4 -0.7,2.1 -0.1,0.4 -0.3,0.9 -0.4,1.3 -0.5,1.6 -1.1,3.2 -1.7,4.7 -0.5,1.3 -0.9,2.6 -1.4,3.9 -0.5,1.3 -1,2.6 -1.5,3.9 -0.5,1.3 -1,2.6 -1.5,3.9 -1.5,3.8 -3.1,7.7 -5.6,10.9 -2.3,3 -6.2,4.9 -10,5.4 -0.3,0.1 -0.7,0.1 -1,0.1 -1.7,0.2 -5.8,-6.3 -6.6,-7.6 -1.9,-2.9 -3.8,-6.2 -5,-9.5 -2.6,-7.2 -5.4,-14.3 -7.4,-21.8 -0.4,-1.3 -0.7,-2.6 -1,-4 l 5.5,-0.9 -6.1,-2.2 c -1.3,-6.5 -2.1,-13 -2.4,-19.6 l 7,0.6 -7.1,-4.8 c 0,-1.7 0,-3.5 0,-5.2 0.1,-4.6 1,-9.1 2.4,-13.6 l 4.7,1 -3.5,-4.6 c 1.7,-4.7 4,-9.4 6.6,-13.8 l 5.7,1.3 -3.7,-4.9 c 0,0 -0.1,-0.1 -0.1,-0.1 v 0 c 3,-3.7 4.8,-7.3 7.2,-10.7 3,-4.2 6.3,-8 9.8,-11.6 v 0 l 3.5,1.4 v 0 l -1.3,-3.7 c 8.4,-8.4 17.9,-15.8 26.9,-23.7 -0.3,0.4 -0.5,0.9 -0.8,1.3 -3,5.8 -3.8,12.6 -3.4,19.1 0,0.5 0.1,1.1 0.1,1.6 0.1,0.7 0.1,1.3 0.2,2 0.1,1.1 0.3,2.3 0.4,3.4 l -2.8,3.3 3.3,-0.1 c 0.2,1.1 0.4,2.2 0.6,3.4 0.1,0.6 0.2,1.3 0.3,1.9 0.2,0.9 0.3,1.9 0.5,2.8 0.1,0.9 0.3,1.7 0.4,2.6 0.1,0.9 0.2,1.9 0.3,2.8 0.1,0.7 0.2,1.5 0.2,2.2 l -5.5,2.7 5.8,0.5 c 0.1,0.8 0.1,1.6 0.1,2.4 0,0.8 0.1,1.6 0.1,2.4 0,2 0.1,3.6 0.1,5.2 z"
               inkscape:connector-curvature="0"
               style="fill:#47ed00" />
            <path
               id="path2678"
               d="m 811.2,420.4 c 0,0.7 0,1.4 0,2.2 0,0.5 0,0.9 0,1.4 0,0.3 0,0.5 0,0.8 0,0.5 0,1 0,1.4 0,1.3 -0.1,2.6 -0.2,3.9 0,0.5 -0.1,1 -0.1,1.5 0,0.4 -0.1,0.8 -0.1,1.2 0,0.4 -0.1,0.8 -0.1,1.1 -0.1,0.6 -0.1,1.3 -0.2,1.9 l -6.4,3.1 6,0.6 c -0.1,1.2 -0.3,2.4 -0.5,3.5 -0.1,0.5 -0.1,0.9 -0.2,1.4 -0.1,0.9 -0.3,1.8 -0.4,2.6 -0.1,0.5 -0.2,1.1 -0.3,1.6 -0.1,0.8 -0.3,1.5 -0.4,2.3 -0.1,0.6 -0.2,1.1 -0.3,1.6 -0.2,1 -0.4,2 -0.6,3 -0.1,0.3 -0.1,0.5 -0.2,0.8 -0.1,0.5 -0.2,1.1 -0.4,1.6 -0.1,0.6 -0.3,1.2 -0.4,1.7 -0.2,0.9 -0.4,1.7 -0.6,2.6 -0.1,0.4 -0.2,0.9 -0.3,1.3 -0.2,0.7 -0.3,1.3 -0.5,2 0,0 0,0 0,0.1 l -6.1,3.3 4.8,1.7 c -0.4,1.4 -0.8,2.7 -1.2,4.1 -0.2,0.7 -0.4,1.4 -0.6,2 -0.2,0.7 -0.4,1.4 -0.7,2.2 -0.4,1.3 -0.8,2.5 -1.2,3.8 -0.2,0.7 -0.5,1.4 -0.7,2.1 -0.1,0.4 -0.3,0.9 -0.4,1.3 -0.5,1.6 -1.1,3.2 -1.7,4.7 -0.5,1.3 -0.9,2.6 -1.4,3.9 -0.5,1.3 -1,2.6 -1.5,3.9 -0.5,1.3 -1,2.6 -1.5,3.9 -1.5,3.8 -3.1,7.7 -5.6,10.9 -2.3,3 -6.2,4.9 -10,5.4 -0.1,-1.2 -0.2,-2.4 -0.2,-3.5 -0.4,-6.5 -0.2,-13 0.2,-19.5 0.3,-6.4 0.8,-19.3 0.8,-19.3 0,0 1.2,-16.2 2.4,-24.4 1,-7.5 2,-15 3.5,-22.5 3.9,-20.2 10.8,-39.7 20.5,-57.8 1.8,-3.4 3.8,-6.8 6.4,-9.5 -3,5.8 -3.8,12.6 -3.4,19.1 0,0.5 0.1,1.1 0.1,1.6 0.1,0.7 0.1,1.3 0.2,2 0.1,1.1 0.3,2.3 0.4,3.4 l -2.8,3.3 3.3,-0.1 c 0.2,1.1 0.4,2.2 0.6,3.4 0.1,0.6 0.2,1.3 0.3,1.9 0.2,0.9 0.3,1.9 0.5,2.8 0.1,0.9 0.3,1.7 0.4,2.6 0.1,0.9 0.2,1.9 0.3,2.8 0.1,0.7 0.2,1.5 0.2,2.2 l -5.5,2.7 5.8,0.5 c 0.1,0.8 0.1,1.6 0.1,2.4 0,0.8 0.1,1.6 0.1,2.4 -0.3,1.9 -0.2,3.5 -0.2,5.1 z"
               inkscape:connector-curvature="0"
               style="fill:#14d600" />
          </g>
          <g
             id="g2688">
            <g
               id="g2684">
              <path
                 id="path2682"
                 d="m 895.7,493.8 c -0.3,0 -0.6,0 -0.9,-0.1 -9.5,-0.5 -19,-0.1 -28.4,1.3 l -7.2,-3.8 1.6,4.8 c -8.2,1.5 -16.3,3.8 -24.2,6.7 l -6.2,-5.4 0.4,7.7 c -2.8,1.2 -5.6,2.5 -8.3,3.8 -4.7,2.4 -9.2,5 -14.1,6.9 -12,4.8 -23.2,3.9 -35.7,2.2 -0.1,0 -0.1,0 -0.2,0 -0.2,0 9.7,-23.6 11.2,-25.7 5.3,-7.9 12.4,-11.6 20.9,-15.3 4.7,-2.1 9.7,-4 14.8,-5.6 l 1.5,4.6 3.2,-6 c 12.5,-3.4 25.7,-4.5 38,-0.7 0,0 0,0 0,0 l -0.2,6.8 5.3,-4.9 c 11.2,4.8 20.3,13.6 28.5,22.7 z"
                 inkscape:connector-curvature="0"
                 style="fill:#22db00" />
            </g>
            <path
               id="path2686"
               d="m 894.8,493.8 c -9.5,-0.5 -19,-0.1 -28.4,1.3 l -7.2,-3.8 1.6,4.8 c -8.2,1.5 -16.3,3.8 -24.2,6.7 l -6.2,-5.4 0.4,7.7 c -2.8,1.2 -5.6,2.5 -8.3,3.8 -4.7,2.4 -9.2,5 -14.1,6.9 -12,4.8 -23.2,3.9 -35.7,2.2 2.7,-2.6 5.8,-4.8 9,-6.9 19.8,-13.4 42.2,-24.2 66.1,-26.2 11.1,-1 22.4,0 33.2,2.8 3.3,0.9 6.5,1.9 9.5,3.5 1.5,0.6 2.9,1.5 4.3,2.6 z"
               inkscape:connector-curvature="0"
               style="fill:#009c15" />
          </g>
          <g
             id="g2694">
            <path
               id="path2690"
               d="m 778.7,518.5 c -0.1,0 -0.1,0 -0.2,0 -12.5,1.3 -23.7,1.8 -35.6,-3.4 -3.9,-1.7 -7.6,-3.9 -11.3,-6 l 3.9,-6.1 -7.1,4.4 c -6.3,-3.4 -12.9,-6.3 -19.7,-8.7 l 4.2,-6.6 -8.4,5.1 v 0 c -4.4,-1 -8.8,-2.6 -13.3,-3.5 l 1.7,-4.7 -7.3,3.6 c -9.3,-1.7 -18.8,-2.4 -28.3,-2.2 -0.3,0 -0.6,0 -0.9,0 8.4,-8.8 17.8,-17.4 29,-21.8 l 5.2,5.1 0.1,-6.8 c 0,0 0,0 0,0 12.4,-3.3 25.6,-1.8 38,2 l 3,6.1 1.7,-4.6 c 5.1,1.8 10,3.9 14.6,6.2 8.4,4.1 15.3,8 20.4,16.1 1.4,1.9 10.5,25.7 10.3,25.8 z"
               inkscape:connector-curvature="0"
               style="fill:#0ecd00" />
            <path
               id="path2692"
               d="m 778.5,518.5 c -12.5,1.3 -23.7,1.8 -35.6,-3.4 -3.9,-1.7 -7.6,-3.9 -11.3,-6 l 3.9,-6.1 -7.1,4.4 c -6.3,-3.4 -12.9,-6.3 -19.7,-8.7 l 4.2,-6.6 -8.4,5.1 v 0 c -4.4,-1 -8.8,-2.6 -13.3,-3.5 l 1.7,-4.7 -7.3,3.6 c -9.3,-1.7 -18.8,-2.4 -28.3,-2.2 1.4,-1 2.8,-1.9 4.4,-2.6 3,-1.5 6.3,-2.4 9.6,-3.1 10.9,-2.5 22.2,-3 33.3,-1.7 23.8,2.9 45.8,14.4 65.1,28.5 3.1,2 6.2,4.3 8.8,7 z"
               inkscape:connector-curvature="0"
               style="fill:#16b200" />
          </g>
        </g>
        <path
           style="fill:#8000f1;fill-opacity:1;stroke:none;stroke-width:1.4652009;stroke-miterlimit:4;stroke-dasharray:none;stroke-opacity:1"
           d="m 145.20365,92.147945 -8.49862,-0.19883 0.28295,-12.094176 5.4993,-2.55925 2.99932,2.75808 z"
           id="rect3224"
           inkscape:connector-curvature="0"
           sodipodi:nodetypes="cccccc" />
      </g>
    </g>
  </g>
</svg>
