<?xml version="1.0" encoding="utf-8"?>
<!-- Generator: Adobe Illustrator 18.0.0, SVG Export Plug-In . SVG Version: 6.00 Build 0)  -->
<!DOCTYPE svg PUBLIC "-//W3C//DTD SVG 1.1//EN" "http://www.w3.org/Graphics/SVG/1.1/DTD/svg11.dtd">
<svg version="1.1" id="Layer_1" xmlns="http://www.w3.org/2000/svg" xmlns:xlink="http://www.w3.org/1999/xlink" x="0px" y="0px"
	 viewBox="0 0 1024 1024" enable-background="new 0 0 1024 1024" xml:space="preserve">
<path fill="#FFFFFF" d="M799.6,510c-32.1,116,13.6,347.2-65.4,429.6c-79,82.4-540.9,88.9-637-60.5S5.8,507.3,66.9,346.9
	c19.9-52.2,53.1-97.7,95.6-135.4c2-1.8,4-3.5,6-5.2C256.3,131.3,381.9,88.1,513,84c176.6-5.5,358.3,55.2,434.5,118.9
	c2,1.7,3.9,3.4,5.8,5.1c7.1,6.4,13.1,12.8,17.9,19.2C1025,298.9,831.7,394,799.6,510z"/>
<g>
	<g>
		<rect x="246.5" y="791.9" width="11.1" height="103.9"/>
		<rect x="242.5" y="710.3" width="19.1" height="103.9"/>
		<rect x="242.4" y="710.3" fill="#2D2D2D" width="4" height="103.9"/>
		<polygon points="261.6,902.5 242.5,902.5 246.5,890.5 257.6,890.5 		"/>
		<path d="M293.3,911.3h-82.6l0,0c0-2.4,1.5-4.4,3.5-4.8L252,900l37.9,6.6C291.9,906.9,293.3,908.9,293.3,911.3L293.3,911.3z"/>
	</g>
	<g>
		<path fill="#6000C1" d="M385,720l-108,9c0,0-0.9-15-9-15s-78,5.3-87.5-8.7S168,560,168,560h108c0,0,11.7,127.8,18.7,133.3
			s72.1,4.3,81.2,11.7S385,720,385,720z"/>
		<path fill="#8000F1" d="M281.1,728.7L277,729c0,0-0.9-15-9-15s-78,5.3-87.5-8.7S168,560,168,560h3.1c0,0,2.9,128.3,12.4,142.3
			s78.4,7.4,86.5,7.7C279.4,710.3,281.1,728.7,281.1,728.7z"/>
	</g>
</g>
<g>
	<g>
		<g>
			<path fill="#25C900" d="M786.2,514.5c0,0.2-24.9-5.8-27.2-6.8c-8.7-4-13.4-10.3-18.6-18.1c-2.8-4.3-5.6-8.9-8-13.7l4.3-2.3
				l-6.5-2.2c-2.9-6.4-5.2-13.1-6.4-19.9l7.6,0.9l-8.2-5c-0.5-4.4-0.5-8.9,0.1-13.4c0,0,0,0,0,0l6.7-1l-5.7-4.5
				c3-11.7,10.2-22.1,17.9-31.6c0,0.3,0.1,0.6,0.1,0.9c1,9.4,3,18.7,5.9,27.8l-2.6,7.7l4.4-2.3c4.6,12.7,11,24.8,18.9,35.7
				c3.1,4.2,6.4,8.3,9.1,12.8c6.7,11.1,7.7,22.3,8,34.8C786.2,514.4,786.2,514.4,786.2,514.5z"/>
			<path fill="#009C15" d="M786.2,514.3c-3-2.3-5.7-5-8.3-7.7c-16.5-17.4-30.8-37.7-36.7-60.9c-2.8-10.8-3.7-22.1-2.7-33.3
				c0.3-3.4,0.8-6.7,1.8-9.9c0.5-1.6,1.2-3.2,2-4.7c1,9.4,3,18.7,5.9,27.8l-2.6,7.7l4.4-2.3c4.6,12.7,11,24.8,18.9,35.7
				c3.1,4.2,6.4,8.3,9.1,12.8C784.9,490.5,785.9,501.7,786.2,514.3z"/>
		</g>
		<g>
			<path fill="#1FC900" d="M768.6,510.4c-0.1,0.2,25.5,1.8,28,1.5c9.5-1.2,15.9-5.9,23.1-11.8c4-3.3,7.9-6.9,11.7-10.7l-3.5-3.4
				l6.8-0.2c8.6-9.7,15.5-21,17.6-33.7c0,0,0,0,0,0l-6.2-2.9l6.7-2.6c0.6-12.1-3.3-24.2-7.8-35.5c-0.1,0.3-0.2,0.5-0.3,0.8
				c-3.8,8.7-8.4,17-13.8,24.8l0.2,8.1l-3.6-3.5c-8.1,10.8-17.8,20.5-28.6,28.6c-4.2,3.1-8.6,6.1-12.5,9.5
				c-9.7,8.6-13.9,19-17.9,30.9C768.7,510.2,768.7,510.3,768.6,510.4z"/>
			<path fill="#00AE0D" d="M768.7,510.2c3.5-1.3,6.9-3.1,10.2-4.9c20.9-11.8,40.5-27,53-47.4c5.8-9.5,10-20.1,12.3-31
				c0.7-3.3,1.2-6.7,1.2-10c0-1.7-0.2-3.4-0.6-5.1c-3.8,8.7-8.4,17-13.8,24.8l0.2,8.1l-3.6-3.5c-8.1,10.8-17.8,20.5-28.6,28.6
				c-4.2,3.1-8.6,6.1-12.5,9.5C776.9,487.8,772.7,498.3,768.7,510.2z"/>
		</g>
		<g>
			<path fill="#47ED00" d="M811.2,420.4c0,0.7,0,1.4,0,2.2c0,0.5,0,0.9,0,1.4c0,0.3,0,0.5,0,0.8c0,0.5,0,1,0,1.4
				c0,1.3-0.1,2.6-0.2,3.9c0,0.5-0.1,1-0.1,1.5c0,0.4-0.1,0.8-0.1,1.2c0,0.4-0.1,0.8-0.1,1.1c-0.1,0.6-0.1,1.3-0.2,1.9l-6.4,3.1
				l6,0.6c-0.1,1.2-0.3,2.4-0.5,3.5c-0.1,0.5-0.1,0.9-0.2,1.4c-0.1,0.9-0.3,1.8-0.4,2.6c-0.1,0.5-0.2,1.1-0.3,1.6
				c-0.1,0.8-0.3,1.5-0.4,2.3c-0.1,0.6-0.2,1.1-0.3,1.6c-0.2,1-0.4,2-0.6,3c-0.1,0.3-0.1,0.5-0.2,0.8c-0.1,0.5-0.2,1.1-0.4,1.6
				c-0.1,0.6-0.3,1.2-0.4,1.7c-0.2,0.9-0.4,1.7-0.6,2.6c-0.1,0.4-0.2,0.9-0.3,1.3c-0.2,0.7-0.3,1.3-0.5,2c0,0,0,0,0,0.1l-6.1,3.3
				l4.8,1.7c-0.4,1.4-0.8,2.7-1.2,4.1c-0.2,0.7-0.4,1.4-0.6,2c-0.2,0.7-0.4,1.4-0.7,2.2c-0.4,1.3-0.8,2.5-1.2,3.8
				c-0.2,0.7-0.5,1.4-0.7,2.1c-0.1,0.4-0.3,0.9-0.4,1.3c-0.5,1.6-1.1,3.2-1.7,4.7c-0.5,1.3-0.9,2.6-1.4,3.9c-0.5,1.3-1,2.6-1.5,3.9
				c-0.5,1.3-1,2.6-1.5,3.9c-1.5,3.8-3.1,7.7-5.6,10.9c-2.3,3-6.2,4.9-10,5.4c-0.3,0.1-0.7,0.1-1,0.1c-1.7,0.2-5.8-6.3-6.6-7.6
				c-1.9-2.9-3.8-6.2-5-9.5c-2.6-7.2-5.4-14.3-7.4-21.8c-0.4-1.3-0.7-2.6-1-4l5.5-0.9l-6.1-2.2c-1.3-6.5-2.1-13-2.4-19.6l7,0.6
				l-7.1-4.8c0-1.7,0-3.5,0-5.2c0.1-4.6,1-9.1,2.4-13.6l4.7,1l-3.5-4.6c1.7-4.7,4-9.4,6.6-13.8l5.7,1.3l-3.7-4.9
				c0,0-0.1-0.1-0.1-0.1v0c3-3.7,4.8-7.3,7.2-10.7c3-4.2,6.3-8,9.8-11.6l0,0l3.5,1.4l0,0l-1.3-3.7c8.4-8.4,17.9-15.8,26.9-23.7
				c-0.3,0.4-0.5,0.9-0.8,1.3c-3,5.8-3.8,12.6-3.4,19.1c0,0.5,0.1,1.1,0.1,1.6c0.1,0.7,0.1,1.3,0.2,2c0.1,1.1,0.3,2.3,0.4,3.4
				l-2.8,3.3l3.3-0.1c0.2,1.1,0.4,2.2,0.6,3.4c0.1,0.6,0.2,1.3,0.3,1.9c0.2,0.9,0.3,1.9,0.5,2.8c0.1,0.9,0.3,1.7,0.4,2.6
				c0.1,0.9,0.2,1.9,0.3,2.8c0.1,0.7,0.2,1.5,0.2,2.2l-5.5,2.7l5.8,0.5c0.1,0.8,0.1,1.6,0.1,2.4c0,0.8,0.1,1.6,0.1,2.4
				C811.1,417.2,811.2,418.8,811.2,420.4z"/>
			<path fill="#14D600" d="M811.2,420.4c0,0.7,0,1.4,0,2.2c0,0.5,0,0.9,0,1.4c0,0.3,0,0.5,0,0.8c0,0.5,0,1,0,1.4
				c0,1.3-0.1,2.6-0.2,3.9c0,0.5-0.1,1-0.1,1.5c0,0.4-0.1,0.8-0.1,1.2c0,0.4-0.1,0.8-0.1,1.1c-0.1,0.6-0.1,1.3-0.2,1.9l-6.4,3.1
				l6,0.6c-0.1,1.2-0.3,2.4-0.5,3.5c-0.1,0.5-0.1,0.9-0.2,1.4c-0.1,0.9-0.3,1.8-0.4,2.6c-0.1,0.5-0.2,1.1-0.3,1.6
				c-0.1,0.8-0.3,1.5-0.4,2.3c-0.1,0.6-0.2,1.1-0.3,1.6c-0.2,1-0.4,2-0.6,3c-0.1,0.3-0.1,0.5-0.2,0.8c-0.1,0.5-0.2,1.1-0.4,1.6
				c-0.1,0.6-0.3,1.2-0.4,1.7c-0.2,0.9-0.4,1.7-0.6,2.6c-0.1,0.4-0.2,0.9-0.3,1.3c-0.2,0.7-0.3,1.3-0.5,2c0,0,0,0,0,0.1l-6.1,3.3
				l4.8,1.7c-0.4,1.4-0.8,2.7-1.2,4.1c-0.2,0.7-0.4,1.4-0.6,2c-0.2,0.7-0.4,1.4-0.7,2.2c-0.4,1.3-0.8,2.5-1.2,3.8
				c-0.2,0.7-0.5,1.4-0.7,2.1c-0.1,0.4-0.3,0.9-0.4,1.3c-0.5,1.6-1.1,3.2-1.7,4.7c-0.5,1.3-0.9,2.6-1.4,3.9c-0.5,1.3-1,2.6-1.5,3.9
				c-0.5,1.3-1,2.6-1.5,3.9c-1.5,3.8-3.1,7.7-5.6,10.9c-2.3,3-6.2,4.9-10,5.4c-0.1-1.2-0.2-2.4-0.2-3.5c-0.4-6.5-0.2-13,0.2-19.5
				c0.3-6.4,0.8-19.3,0.8-19.3s1.2-16.2,2.4-24.4c1-7.5,2-15,3.5-22.5c3.9-20.2,10.8-39.7,20.5-57.8c1.8-3.4,3.8-6.8,6.4-9.5
				c-3,5.8-3.8,12.6-3.4,19.1c0,0.5,0.1,1.1,0.1,1.6c0.1,0.7,0.1,1.3,0.2,2c0.1,1.1,0.3,2.3,0.4,3.4l-2.8,3.3l3.3-0.1
				c0.2,1.1,0.4,2.2,0.6,3.4c0.1,0.6,0.2,1.3,0.3,1.9c0.2,0.9,0.3,1.9,0.5,2.8c0.1,0.9,0.3,1.7,0.4,2.6c0.1,0.9,0.2,1.9,0.3,2.8
				c0.1,0.7,0.2,1.5,0.2,2.2l-5.5,2.7l5.8,0.5c0.1,0.8,0.1,1.6,0.1,2.4c0,0.8,0.1,1.6,0.1,2.4C811.1,417.2,811.2,418.8,811.2,420.4z
				"/>
		</g>
		<g>
			<g>
				<path fill="#22DB00" d="M895.7,493.8c-0.3,0-0.6,0-0.9-0.1c-9.5-0.5-19-0.1-28.4,1.3l-7.2-3.8l1.6,4.8
					c-8.2,1.5-16.3,3.8-24.2,6.7l-6.2-5.4l0.4,7.7c-2.8,1.2-5.6,2.5-8.3,3.8c-4.7,2.4-9.2,5-14.1,6.9c-12,4.8-23.2,3.9-35.7,2.2
					c-0.1,0-0.1,0-0.2,0c-0.2,0,9.7-23.6,11.2-25.7c5.3-7.9,12.4-11.6,20.9-15.3c4.7-2.1,9.7-4,14.8-5.6l1.5,4.6l3.2-6
					c12.5-3.4,25.7-4.5,38-0.7c0,0,0,0,0,0l-0.2,6.8l5.3-4.9C878.4,475.9,887.5,484.7,895.7,493.8z"/>
			</g>
			<path fill="#009C15" d="M894.8,493.8c-9.5-0.5-19-0.1-28.4,1.3l-7.2-3.8l1.6,4.8c-8.2,1.5-16.3,3.8-24.2,6.7l-6.2-5.4l0.4,7.7
				c-2.8,1.2-5.6,2.5-8.3,3.8c-4.7,2.4-9.2,5-14.1,6.9c-12,4.8-23.2,3.9-35.7,2.2c2.7-2.6,5.8-4.8,9-6.9
				c19.8-13.4,42.2-24.2,66.1-26.2c11.1-1,22.4,0,33.2,2.8c3.3,0.9,6.5,1.9,9.5,3.5C892,491.8,893.4,492.7,894.8,493.8z"/>
		</g>
		<g>
			<path fill="#0ECD00" d="M778.7,518.5c-0.1,0-0.1,0-0.2,0c-12.5,1.3-23.7,1.8-35.6-3.4c-3.9-1.7-7.6-3.9-11.3-6l3.9-6.1l-7.1,4.4
				c-6.3-3.4-12.9-6.3-19.7-8.7l4.2-6.6l-8.4,5.1h0c-4.4-1-8.8-2.6-13.3-3.5l1.7-4.7l-7.3,3.6c-9.3-1.7-18.8-2.4-28.3-2.2
				c-0.3,0-0.6,0-0.9,0c8.4-8.8,17.8-17.4,29-21.8l5.2,5.1l0.1-6.8c0,0,0,0,0,0c12.4-3.3,25.6-1.8,38,2l3,6.1l1.7-4.6
				c5.1,1.8,10,3.9,14.6,6.2c8.4,4.1,15.3,8,20.4,16.1C769.8,494.6,778.9,518.4,778.7,518.5z"/>
			<path fill="#16B200" d="M778.5,518.5c-12.5,1.3-23.7,1.8-35.6-3.4c-3.9-1.7-7.6-3.9-11.3-6l3.9-6.1l-7.1,4.4
				c-6.3-3.4-12.9-6.3-19.7-8.7l4.2-6.6l-8.4,5.1h0c-4.4-1-8.8-2.6-13.3-3.5l1.7-4.7l-7.3,3.6c-9.3-1.7-18.8-2.4-28.3-2.2
				c1.4-1,2.8-1.9,4.4-2.6c3-1.5,6.3-2.4,9.6-3.1c10.9-2.5,22.2-3,33.3-1.7c23.8,2.9,45.8,14.4,65.1,28.5
				C772.8,513.5,775.9,515.8,778.5,518.5z"/>
		</g>
	</g>
	<g>
		<polygon fill="#6000C1" points="832.6,603.3 723,603.3 723,520 776.4,514.3 832.6,520 		"/>
		<polygon fill="#8000F1" points="776.4,603.3 723,603.3 723,520 776.4,514.3 		"/>
	</g>
	<g>
		<polygon fill="#2D2D2D" points="680.8,603.3 604.3,603.3 604.3,573.8 641.6,571.8 680.8,573.8 		"/>
		<polygon fill="#4F4F4F" points="641.6,603.3 604.3,603.3 604.3,573.8 641.6,571.8 		"/>
	</g>
</g>
<g>
	<path fill="#2D2D2D" d="M525.1,603.3H335.6c-2,0-3.6-1.6-3.6-3.6v-0.5c0-2,1.6-3.6,3.6-3.6h189.5c2,0,3.6,1.6,3.6,3.6v0.5
		C528.7,601.7,527.1,603.3,525.1,603.3z"/>
	<path fill="#4F4F4F" d="M391.2,603.3H327c-2.1,0-3.8-1.7-3.8-3.8l0,0c0-2.1,1.7-3.8,3.8-3.8h64.2c2.1,0,3.8,1.7,3.8,3.8l0,0
		C395,601.6,393.3,603.3,391.2,603.3z"/>
</g>
<g>
	<g>
		<g>
			<path fill="#4F4F4F" d="M555.9,555.6h-161c-8.1,0-14.2-7.5-12.5-15.4l21.3-99.7c1.4-6.3,7.3-10.7,13.7-10l160.7,15.5
				c7.8,0.7,13,8.2,11.2,15.8l-21,84.2C566.8,551.6,561.7,555.6,555.9,555.6z"/>
			<path fill="#2D2D2D" d="M595.3,461.7L575,543.1l-0.8,3c-1.4,5.7-6.5,9.9-12.4,9.9h-161c-8.1,0-14.2-7.7-12.5-15.6l0.3-1.4
				l20.5-95.7l0.6-2.7c1.4-6.3,7.3-10.7,13.7-10.1l160.7,15.5c6,0.6,10.5,5.1,11.4,10.6C595.8,458.2,595.7,460,595.3,461.7z"/>
		</g>
		
			<ellipse transform="matrix(0.8762 0.482 -0.482 0.8762 288.6046 -181.4266)" fill="#4F4F4F" cx="497.4" cy="471" rx="11.6" ry="13.4"/>
	</g>
	<g>
		<g>
			<path fill="#4F4F4F" d="M509,601h-38l5.8-100.2c0.1-2.1,1.9-3.7,3.9-3.6l24.8,1.5c2,0.1,3.5,1.8,3.5,3.8V601z"/>
			<path fill="#3A3A3A" d="M513,601h-38l5.8-100.2c0.1-2.1,1.9-3.7,3.9-3.6l24.8,1.5c2,0.1,3.5,1.8,3.5,3.8V601z"/>
		</g>
		<g>
			<path fill="#3A3A3A" d="M442.7,603.3h68c1.3,0,2.3-1,2.3-2.3l0,0h-70.3V603.3z"/>
			<path fill="#4F4F4F" d="M440.3,603.3h32.4c1.3,0,2.3-1,2.3-2.3l0,0h-33c-0.9,0-1.7,0.8-1.7,1.7V603.3z"/>
		</g>
	</g>
</g>
<path fill="#2D2D2D" d="M327.9,603.3l-36.3,0.1l1.8-14.4l24.7,1.4c4.8,0,9.8,7,9.8,11.8V603.3z"/>
<g>
	<g>
		<polygon fill="#F7931E" points="356.9,449.8 354.7,449.8 349.4,428.6 337.8,432.8 337.3,430.6 351,425.6 		"/>
		<g>
			<g>
				<path fill="#BC8FF9" d="M375.1,466.9c-0.3,6.4-2,10.3-2,10.3l-14,11.1c0,0-7.4,50.7-8.4,57.4c-1,6.7-7.8,12.1-21.3,9.9
					c-13.6-2.2-21.7-5-21.7-5l2.7-32.3l14.3,2l2.1,0.6l5.3,1.5l10.9-34.2l3-11.1l-0.8-4.8l11.5-2.7l13-7.3l4.9-2.9
					C374.6,459.4,375.5,460.5,375.1,466.9z"/>
				<path fill="#6000C1" d="M276.5,501.4c0,0,50.5,17,43.5,18.3c-7,1.3-12.7,32.7-12.7,32.7l-27.7-10L276.5,501.4z"/>
				<g>
					<path fill="#6F00E5" d="M385,699c-0.1,11-24.4,171.5-24.4,171.5l-26.6-1c0,0,16.7-139.6,16.7-152.5c0-13.2-9.9-26.1-9.9-26.1
						s0,18.6,0,26.1s-24.3,153-24.3,153l-21.7,1.5l0,0L288,872c0,0,13.8-131.5,14-144.5s-8-26.2-25.5-27.5
						c-17.5-1.3-55.5,5-77.3,1.1c-21.9-3.9-18.7-89.2-10.8-129.1c0.1-0.5,0.2-1.1,0.3-1.6c7.9-39.2,7.4-69.7,33.3-77.4
						c15.9-4.7,45.9,4.2,45.9,4.2s10.1,2.9,19,12.9c8.9,10,9.2,35.9,6.7,47.4s-6.9,92-3.1,98.1c3.9,6.2,52.4,10.8,68.6,17.4
						C375.3,679.6,385.1,688,385,699z"/>
					<polygon fill="#6300D6" points="278.3,666.6 332,682 272.3,667.6 					"/>
					<path fill="#6300D6" d="M267.6,665.1c22.4-5.4,24.7-7.1,24.7-7.1l-65.1,11.6C227.3,669.6,245.3,670.5,267.6,665.1z"/>
					<path fill="#6300D6" d="M320.5,737c-2,9.2-11,50.8-11,50.8l-14.7,83.8l0,0L288,872c0,0,13.8-131.5,14-144.5c0-3-0.4-6.1-1.3-9
						c-1.9-6.3-6-11.9-12.5-15.3c-3.3-1.7-7.2-2.9-11.8-3.2c-17.5-1.3-55.5,5-77.3,1.1c-21.9-3.9-18.7-89.2-10.8-129.1
						c0.1-0.5,0.2-1.1,0.3-1.6l12.7,59.6l20.2,14.5l-19.5-1.8l15.5,6.3H203l11.1,13.8l20.6,6.6l-18.9,9.4l33.4,1.2l12.2-4.3
						l-6.4,4.8l18.2,1.5l14.3-4.5l-3.2,6.5c0,0,2.9,2.4,6.8,3.3c3.8,0.8,25.4,5.3,28.1,9.9C322,701.8,322.5,727.8,320.5,737z"/>
				</g>
				<path fill="#BC8FF9" d="M328.5,597.5c-2.4,2.4-12.4-6.6-12.4-6.6l-12.5-0.1c0,0-7.8,7-13.7,9.8c-5.9,2.9-9,1.5-9,1.5
					s-0.2,0-0.5,0c-6.4,0.3-68.1,3.4-81.1-1.6c-0.9-0.3-1.6-0.7-2-1.1c-6.6-6.9-3.3-41.2-3.3-41.2l34,3.7c0,0,0.3,14.6-1.7,20.8
					c13.5-0.6,54.7,5.6,54.7,5.6l21.6-6.7l14.6,3.9C317.3,585.6,330.9,595.1,328.5,597.5z"/>
				<path fill="#6000C1" d="M220,499.1c25.5,4.1,12.9,66.4,10.3,70.2c-2.6,3.7-33.9,0.4-36.9-3.5C190.4,561.9,194.5,495.1,220,499.1
					z"/>
				<path fill="#A377E8" d="M243.5,466.4l-14,25.6c0,0,6.6,8.6,26.4,16.3c19.8,7.7,12-11.1,12-11.1l3.7-17.2L243.5,466.4z"/>
				<path fill="#BC8FF9" d="M233,449.3c0,0,3.5,20,10.5,28s18.8,15.3,29.5,11s13.8-17,15.3-25.3s3.8-29,3.8-30.3
					c0-1.3-0.3-15,0-16.3c0.3-1.3-10.7-10.5-11-11c-0.3-0.5-19.7-1.7-19.7-1.7l-15.2,1.7l-6.7,8.5l-6.7,22.9V449.3z"/>
				<path fill="#6F00E5" d="M237,440h5l3.3-13.8c0,0,6-3.3,6.7-5.6s-0.9-6.4-0.9-6.4s8.9,5.1,17.2,7.5s22.4-3.3,22.4-3.3l1.2,17.7
					c0,0,0.7-23.1,3.2-25.5c2.8-2.8,5.3-6.7,5.3-6.7l-11.2-1.4l3-1.8l-12.9-2.4l3.6-1.5l-11.5-1.5l4.5-1.5c0,0-25.1-1.5-34.3,7.3
					c-1.9,1.8-0.9,3.8-0.9,3.8s-5,1.2-6.8,2.9c-1.8,1.8-3.4,18.2-3.4,18.2l4.9,2.3c0,0,1.8,0.1,2.2,0.7"/>
				<g>
					<path fill="#BC8FF9" d="M237,439c0-1.5,1.8-13.8-6.5-13.8s-8.1,12.8-6.9,17.8c1.2,5,3.4,9,6.9,9.4C234,452.8,237,439,237,439z"
						/>
					<path fill="#A377E8" d="M227,436.1l3.1-3.8l1.9,5.5l0.3-3.7c0,0,0-3.6-2.2-3.6s-2.6,3.3-2.6,3.3L227,436.1z"/>
					<path fill="#A377E8" d="M231.2,441.6l-1.9,2.4l-1.1-3.5l-0.2,2.4c0,0,0,2.3,1.3,2.3c1.3,0,1.6-2.1,1.6-2.1L231.2,441.6z"/>
				</g>
				<polygon fill="#2D2D2D" points="369.7,491 349.6,491 346.6,450.4 344,450.4 344.9,448.3 373.9,448.3 375.1,450.4 372.7,450.4 
									"/>
				<polygon fill="#A377E8" points="345.8,484.1 334,536.1 331.7,524.2 326.8,520.9 332.1,522.5 343,488.3 346,477.2 				"/>
				<g>
					<path fill="#BC8FF9" d="M346,464.9c0.6-2.3,4.5-4.9,4.5-4.9s0.9-1.3,2.5,0s0.8,2.8,0.8,2.8s-4.4,5.4-4.6,5.8s-1,4.6-1,4.6
						l0.2,3c0,0-2.1-1.6-3.2-3.7S345.3,467.1,346,464.9z"/>
					<path fill="#A377E8" d="M349.2,464.2c-1.6-1.1,0.8-3.2,0.8-3.2s1-1.3,2.5-0.4s-0.1,2.9-0.1,2.9S350.8,465.3,349.2,464.2z"/>
					<path fill="#BC8FF9" d="M374.6,459.4c0,0-9.3-0.9-9.3,2.2s8.7,1.8,8.7,1.8c-3.6,0.5-8.7-1-8.7,2.8s8.3,2.6,8.3,2.6
						s-6.1-0.6-6.4,2.2s6.1,2.4,6.1,2.4s-5.2-0.3-5.1,1.8s4.8,2.1,4.8,2.1L374.6,459.4z"/>
					<path fill="#A377E8" d="M370.3,466.5c0.2,1.9-2.9,1.5-2.9,1.5s-1.6,0.1-2-1.6s2.3-1.8,2.3-1.8S370.1,464.6,370.3,466.5z"/>
					<path fill="#A377E8" d="M369.7,461.4c0.2,1.7-2.6,1.4-2.6,1.4s-1.5,0.1-1.7-1.4s2.1-1.7,2.1-1.7S369.6,459.7,369.7,461.4z"/>
					<path fill="#A377E8" d="M371.1,471.3c0.2,1.5-2.3,1.2-2.3,1.2s-1.3,0.1-1.5-1.2c-0.3-1.3,1.8-1.5,1.8-1.5
						S371,469.8,371.1,471.3z"/>
					<path fill="#A377E8" d="M370.8,475.4c0.1,1.1-1.6,0.8-1.6,0.8s-0.9,0-1.1-0.9c-0.2-0.9,1.3-1,1.3-1S370.7,474.3,370.8,475.4z"
						/>
				</g>
				<path fill="#A377E8" d="M282.2,599.5l-1.7,2.7c-6.4,0.3-68.1,3.4-81.1-1.6l8.3-3.6L282.2,599.5z"/>
			</g>
			<g>
				<polygon fill="#BC8FF9" points="291,875 291,892 310.1,898.5 313,873.5 				"/>
				<polygon fill="#6300D6" points="284.2,877.5 322.3,877.5 319.6,866 287.1,866.6 				"/>
				<polygon fill="#BC8FF9" points="336,872.4 336,894 356,894 358,870.6 				"/>
				<polygon fill="#6300D6" points="328.2,873.5 366.3,873.5 363.6,862 331.1,862.6 				"/>
				<g>
					<path fill="#6F1A00" d="M398.8,908.8c0,0-10.5,10-22,10s-30.5-7.1-30.5-7.1l-13.7-6.6l-3.6-2.7l4.3-15.3h2.8
						c0,0-1.3,3.4,6.6,5.2c7.8,1.9,7.4,0,7.4,0l10.7-1.3l6.7,6.5L398.8,908.8z"/>
					<path fill="#BC8FF9" d="M400.8,916c-2,3.8-13,8.8-25.3,8.8s-26.7-8.4-30.9-10s-10.7-6.1-13.4-7.6c-5.6-2.9-2.2-5.6-2.2-5.6
						s11.5,7.9,18,9.7c6.7,2.8,18.3,7.4,29.8,7.4s22-10,22-10S402.7,912.3,400.8,916z"/>
				</g>
				<g>
					<path fill="#6F1A00" d="M353.8,908.8c0,0-10.5,10-22,10s-30.5-7.1-30.5-7.1l-13.7-6.6l-3.6-2.7l4.3-15.3h2.8
						c0,0-1.3,3.4,6.6,5.2c7.8,1.9,7.4,0,7.4,0l10.7-1.3l6.7,6.5L353.8,908.8z"/>
					<path fill="#BC8FF9" d="M355.8,916c-2,3.8-13,8.8-25.3,8.8s-26.7-8.4-30.9-10s-10.7-6.1-13.4-7.6c-5.6-2.9-2.2-5.6-2.2-5.6
						s11.5,7.9,18,9.7c6.7,2.8,18.3,7.4,29.8,7.4s22-10,22-10S357.7,912.3,355.8,916z"/>
				</g>
			</g>
		</g>
	</g>
	<rect x="346.1" y="450.4" fill="#4F4F4F" width="27" height="2.6"/>
</g>
<g>
	<g>
		<rect x="85" y="603.3" fill="#6000C1" width="767.9" height="18.5"/>
		<polygon points="119.2,937.9 105.6,940.9 105.6,621.9 119.2,621.9 		"/>
		<polygon fill="#2D2D2D" points="106.2,940.9 92.6,937.9 92.6,621.9 106.2,621.9 		"/>
		<polygon points="360.6,1000.7 347,1003.7 347,621.9 360.6,621.9 		"/>
		<polygon fill="#2D2D2D" points="347.6,1003.7 334,1000.7 334,621.9 347.6,621.9 		"/>
		<rect x="584.4" y="621.9" width="13.6" height="257.5"/>
		<polygon points="845.4,938.6 831.8,941.6 831.8,621.9 845.4,621.9 		"/>
		<polygon fill="#2D2D2D" points="832.4,941.6 818.8,938.6 818.8,621.9 832.4,621.9 		"/>
		<rect x="85" y="603.3" fill="#8000F1" width="261.7" height="18.5"/>
	</g>
	<polygon points="691.9,969.1 678.3,972.1 678.3,917.2 691.9,917.2 	"/>
	<polygon fill="#2D2D2D" points="678.8,972.1 665.2,969.1 665.2,917.2 678.8,917.2 	"/>
	<polygon fill="#6000C1" points="417.1,869 678.8,920.2 852.9,893.6 852.9,620.9 417.1,620.9 	"/>
	<polygon fill="#2D2D2D" points="438.7,910.7 425.1,907.7 425.1,864 438.7,864 	"/>
	<polygon points="451.7,907.7 438.1,910.7 438.1,864 451.7,864 	"/>
	<polygon fill="#8000F1" points="678.8,920.2 417.1,869 417.1,621.8 678.8,621.8 	"/>
</g>
<polygon fill="#78F5FF" points="360.7,291.1 337.3,238.7 394.4,244.6 "/>
<polygon fill="#FF6747" points="303.7,284.1 280.3,231.7 337.4,237.6 "/>
<polygon fill="#78F5FF" points="246.7,276.1 223.3,223.7 280.4,229.6 "/>
<polygon fill="#D1FF1A" points="182.1,265.1 168.1,209.4 223.3,225.1 "/>
<polygon fill="#D1FF1A" points="420.5,292.9 394.6,241.7 451.9,244.9 "/>
<polygon fill="#FF509D" points="476.5,296.9 450.6,245.7 507.9,248.9 "/>
<polygon fill="#D1FF1A" points="536.4,298.6 507.9,248.7 565.3,249 "/>
<polygon fill="#FF6747" points="593.4,295.6 564.9,245.7 622.3,246 "/>
<polygon fill="#FF509D" points="651.9,295.3 621.4,246.6 678.8,244.6 "/>
<polygon fill="#78F5FF" points="710.9,290.8 677.8,243.8 735,238.7 "/>
<polygon fill="#D1FF1A" points="767.9,286.8 734.8,239.8 792,234.7 "/>
<polygon fill="#FF509D" points="824.9,280.8 791.8,233.8 849,228.7 "/>
<polygon fill="#FF6747" points="885.8,271.4 847.8,228.3 904.1,217 "/>
<polygon fill="#78F5FF" points="932.8,261.4 894.8,218.3 951.1,207 "/>
<path fill="#2D2D2D" d="M953.3,208c-72.8,25.1-224.9,42.3-400.7,42.3c-167.7,0-313.8-15.7-390.1-38.8c2-1.8,4-3.5,6-5.2
	c77.8,22.2,220.7,37.1,384.1,37.1c171.3,0,320.1-16.3,394.9-40.3C949.5,204.7,951.5,206.3,953.3,208z"/>
</svg>
