<?xml version="1.0" encoding="utf-8"?>
<!-- Generator: Adobe Illustrator 18.0.0, SVG Export Plug-In . SVG Version: 6.00 Build 0)  -->
<!DOCTYPE svg PUBLIC "-//W3C//DTD SVG 1.1//EN" "http://www.w3.org/Graphics/SVG/1.1/DTD/svg11.dtd">
<svg version="1.1" id="Layer_1" xmlns="http://www.w3.org/2000/svg" xmlns:xlink="http://www.w3.org/1999/xlink" x="0px" y="0px"
	 viewBox="0 0 1024 1024" enable-background="new 0 0 1024 1024" xml:space="preserve">
<path fill="#CCD5E0" d="M955.4,586.5c11.3,23.1,18.9,47.6,20,73.8c3.2,73.4-39.4,143.8-84.8,198.2
	c-44.3,53.1-102.1,96.4-170.8,111.3c-47.3,10.2-95.5,1.1-142.8-3.6c-67-6.7-136.3-15.1-204.4-21c-51.6-4.5-102.1-4.7-153.7-6.1
	c-35-0.9-63.6-15.2-76.5-48.9c-11.5-30.2-9.5-64.3,0-95.2c9.5-30.9,26-59.1,43.3-86.4c52.2-82.3,113-159.1,181.2-228.7
	c42.4-43.3,99.6-67.8,156.7-85.1c60.8-18.4,118-39.9,182.9-27.6c66.6,12.6,122.1,57,165.8,106.9C902.2,507.8,935,544.8,955.4,586.5z
	"/>
<g>
	<path fill="#833500" d="M741.4,763.4l-0.2,0C741.2,763.4,741.2,763.4,741.4,763.4z"/>
	<path fill="#8000F1" d="M612,739.4L612,739.4l-0.1,3.4l-1.8,21.7c1.1,7.1,1.8,15.2,1.7,24.1c0,6.3-0.3,12.9-0.9,19.7
		c-0.8,9.4-2.2,18.3-3.9,26.4c-1.3,6.1-2.9,11.6-4.6,16.6l-1.9,21l-0.3,3.6l-2.6-0.2l-13.5-1.2c-2.7-0.2-5-2.1-7.1-5.3
		c-6.8-10.6-10-35.7-7.4-64.7c1.2-13.4,3.5-25.8,6.4-36.1c5.4-18.8,12.9-30.9,20.3-30.3L612,739.4L612,739.4z"/>
	
		<ellipse transform="matrix(0.996 8.883058e-002 -8.883058e-002 0.996 74.1545 -50.6437)" fill="#8000C1" cx="606.1" cy="807.8" rx="20.7" ry="68.7"/>
	<path fill="#8000F1" d="M740.7,763.4l-10,112.1l-124.4-2.1c-0.2,0.1-0.5,0.2-0.8,0.2c-0.6,0.1-1.2-0.1-1.8-0.1
		c-0.3,0-0.7-0.4-1-0.4h0c-0.2,0-0.4,0-0.6-0.1c-0.2,0-0.4-0.1-0.6-0.2c-0.2-0.1-0.4-0.1-0.5-0.2c-0.8-0.4-1.6-1-2.4-1.8
		c-0.1-0.1-0.2-0.2-0.3-0.3c-0.1-0.1-0.2-0.2-0.3-0.3c-0.9-1.1-1.7-2.4-2.5-4c-0.5-0.9-0.9-2-1.3-3l0-0.2
		c-4.6-12.1-6.6-33.1-4.5-56.8c2.1-23.7,7.8-44.1,14.5-55.2c2.7-4.5,5.7-7.5,8.6-8.4c0,0,0,0,0.1,0c0.8-0.3,1.7-0.3,2.5-0.3
		c1.1,0.1,2.1,0.5,3.1,1.1c0,0,0,0,0,0l26.1,4.3l55.7,9.1L740.7,763.4z"/>
	<g>
		<path fill="#8000C1" d="M753.1,820.9c-2.7,30-12,53.8-21,54.5l-0.1,0l-0.8,0l0-0.2c-0.1,0-0.1-0.2-0.2-0.2h0
			c-9.2-1-14.4-26.6-11.7-57.3c2.8-30.9,12.6-55.2,21.9-54.4c0.8,0.1,1.5,0.4,2.2,0.7C751.4,768.4,755.7,792.5,753.1,820.9z"/>
	</g>
	<g>
		<path fill="#8000A1" d="M741.2,820.1c-0.8,8.8-3.5,15.9-6.2,15.9h0l-0.2,0.1l0,0c0,0,0-0.1-0.1-0.1h0c-2.7,0-4.2-7.8-3.4-16.8
			c0.8-9.1,3.7-16.2,6.4-16c0.2,0,0.4,0.1,0.7,0.2C740.6,804.7,741.9,811.7,741.2,820.1z"/>
	</g>
	<path fill="#A377E8" d="M608.8,793.3c-6.8,12.8-7.4,28.7-1.6,42c1.1,2.5,2.3,4.8,4,6.9c6.5,8.1,17.6,10.5,27.9,11.9
		c16.1,2.2,32.3,3.5,48.6,3.7c2.8,0,5.7,0,8.3-1c6-2.3,9-9.1,10.2-15.4c1.2-6.5,1.1-13.2-0.3-19.7c-0.6-2.7-1.4-5.4-2.8-7.8
		c-1.5-2.6-3.7-4.6-6-6.6c-14.2-12.6-31-22.4-49-28.6c-5.7-2-11.8-3.6-17.8-2.8C621,777.4,613.3,784.8,608.8,793.3z"/>
</g>
<path fill="#873A00" d="M577,869c-6.6,6.1-17.1,8.2-26.5,8c-27.2-0.5-54-12.3-80.9-8.5c-12.2,1.7-23.7,6.5-35.7,8.9
	c-5.4,1.1-10.9,1.6-16.4,1.9c-6.6,0.3-13.2,0.3-19.8,0.2c-37-0.3-74.1-0.6-111.1-0.9c-9.9-0.1-20-0.2-29.8-2.1
	c-6.3-1.2-18.3-2.9-22.6-8.5c-0.1-0.1-0.1-0.2-0.2-0.3c-0.1-0.2-0.2-0.3-0.3-0.5c-0.7-1.2-1.1-2.4-1.3-3.6c0-0.1,0-0.1,0-0.2
	c0-0.1,0-0.2,0-0.2c-0.9-7.1,5.4-15,10.5-19.7c0.5-0.5,1-0.9,1.5-1.3c0.4-0.4,0.8-0.7,1.3-1c0.1-0.1,0.2-0.1,0.3-0.2
	c0.4-0.3,0.8-0.6,1.2-0.9c0,0,0,0,0,0c0.5-0.3,0.9-0.7,1.4-1c0.4-0.3,0.8-0.5,1.2-0.8c0.6-0.4,1.2-0.7,1.8-1.1
	c0.3-0.2,0.7-0.4,1-0.6c0.2-0.1,0.4-0.2,0.6-0.3c1.9-1,3.9-2,5.9-2.9c0.4-0.2,0.8-0.4,1.2-0.5c0.8-0.3,1.6-0.7,2.5-1
	c2.1-0.8,4.1-1.5,6.2-2.2c21.3-7.1,43.8-10.7,66.3-10.5c22.4,0.2,44.6,4,67,4.7c22.4,0.7,45.7-2.2,64.7-14.1
	c8.1-5.1,15.1-11.6,23-16.9c0.5-0.4,1-0.7,1.6-1c0.4-0.3,0.8-0.5,1.3-0.8c0.4-0.3,0.8-0.5,1.2-0.7c0.7-0.4,1.3-0.8,2-1.1
	c0.4-0.2,0.7-0.4,1.1-0.6c0.5-0.3,1.1-0.6,1.6-0.8c0.5-0.2,0.9-0.5,1.3-0.7c1-0.5,2-1,3-1.4c0.3-0.1,0.6-0.3,0.9-0.4
	c1-0.5,2-0.9,3-1.3c0.5-0.2,0.9-0.4,1.4-0.6c1-0.4,2.1-0.8,3.1-1.3c0.8-0.3,1.6-0.6,2.4-0.9c1.1-0.4,2.2-0.8,3.3-1.2
	c12.2-4.3,24.8-7.5,37.6-9.6c7-1.1,14.1-1.9,21.2-2.4c-2.9,10.3-5.2,22.7-6.4,36.1C567,833.3,570.2,858.5,577,869z"/>
<path fill="#A84400" d="M554.7,770.6c0.1,13.4-3.1,26.8-9.5,38.6c-2.8,5.2-6.3,10.3-11.2,13.7c-9.8,6.8-22.9,5.8-34.5,8.8
	c-12.2,3.2-22,11.2-33.5,15.5c-12.1,4.6-24.3,9.8-34.3,18.2c-5.1,4.3-9.5,9.3-14.3,13.8c-6.6,0.3-13.2,0.3-19.8,0.2
	c-37-0.3-74.1-0.6-111.1-0.9c-9.9-0.1-20-0.2-29.8-2.1c-6.3-1.2-18.3-2.9-22.6-8.5c-0.1-0.1-0.1-0.2-0.2-0.3
	c-0.8-1.4-1.4-2.8-1.7-4.1c0-0.1,0-0.1,0-0.2c0-0.1,0-0.2,0-0.2c-1.2-7.4,5.2-14.8,10.5-19.7c0.5-0.5,1-0.9,1.5-1.3
	c0.4-0.4,0.8-0.7,1.3-1c0.1-0.1,0.2-0.1,0.3-0.2c0.4-0.3,0.8-0.6,1.2-0.9c0,0,0,0,0,0c0.5-0.3,0.9-0.7,1.4-1
	c0.4-0.3,0.8-0.5,1.2-0.8c0.6-0.4,1.2-0.7,1.8-1.1c0.3-0.2,0.7-0.4,1-0.6c0.2-0.1,0.4-0.2,0.6-0.3c1.9-1,3.9-2,5.9-2.9
	c0.4-0.2,0.8-0.4,1.2-0.5c0.8-0.3,1.6-0.7,2.5-1c2.1-0.8,4.1-1.5,6.2-2.2c21.3-7.1,43.8-10.7,66.3-10.5c22.4,0.2,44.6,4,67,4.7
	c22.4,0.7,45.7-2.2,64.7-14.1c8.1-5.1,15.1-11.6,23-16.9c0.5-0.4,1-0.7,1.6-1c0.4-0.3,0.8-0.5,1.3-0.8c0.4-0.3,0.8-0.5,1.2-0.7
	c0.7-0.4,1.3-0.8,2-1.1c0.4-0.2,0.7-0.4,1.1-0.6c0.5-0.3,1.1-0.6,1.6-0.8c0.5-0.2,0.9-0.5,1.3-0.7c1-0.5,2-1,3-1.4
	c0.3-0.1,0.6-0.3,0.9-0.4c1-0.5,2-0.9,3-1.3c0.5-0.2,0.9-0.4,1.4-0.6c1-0.4,2.1-0.8,3.1-1.3c0.8-0.3,1.6-0.6,2.4-0.9
	c1.1-0.4,2.2-0.8,3.3-1.2C529.3,775.9,541.9,772.7,554.7,770.6z"/>
<path fill="#C14E00" d="M513.8,781.4c-4.2,14.2-11.9,27.3-22.5,37.6c-8.8,8.7-19.3,15.4-29.8,21.8c-7.9,4.9-16,9.7-24.8,12.7
	c-7.2,2.5-13.6,5.1-21.3,5.3c-12.8,0.3-25.7,1.7-38,5.1c-4.3,1.2-8.7,2.6-13.1,3.2c-5.5,0.7-11,0.2-16.5,0.5
	c-5.5,0.3-11,1.5-16.5,1.9c-20,1.7-39.6-5.5-58.2-13.1c-6.1-2.4-13-6.1-13.8-12.5c-0.3-2.9,0.7-8.6,2.6-11c1.6-2,4.7-2.5,7.1-3.3
	c21.3-7.1,43.8-10.7,66.3-10.5c22.4,0.2,44.6,4,67,4.7c22.4,0.7,45.7-2.2,64.7-14.1c8.1-5.1,15.1-11.6,23-16.9
	C497.3,788.2,505.4,784.5,513.8,781.4z"/>
<path fill="#D15400" d="M424.4,839.1c-6.3-3.5-11.9-8.3-18.7-10.7c-16.3-5.8-33.9,3.8-51.1,2.9c-8.5-0.4-16.8-3.4-25.2-4.7
	c-8.4-1.3-17.5-0.5-24.2,5.4c16.7,10.8,33.9,17.4,53.9,19c19.2,1.6,38.6-0.8,57.6-4.4c2.1-0.4,4.2-0.8,5.9-2.1
	C424.2,843.4,425.2,841,424.4,839.1z"/>
<g>
	<polygon fill="#8000F1" points="393.4,838.8 378.9,842.8 364.9,838.8 364.9,292.5 393.4,292.5 	"/>
	<polygon fill="#A377E8" points="378.9,842.8 364.9,838.8 364.9,292.5 378.9,292.5 	"/>
	<rect x="499.5" y="94.5" fill="#8000F1" width="16.5" height="411.4"/>
	<rect x="499.5" y="94.5" fill="#A377E8" width="9.2" height="411.4"/>
	<rect x="318.8" y="69.5" fill="#8000F1" width="5.5" height="314.4"/>
	<rect x="318.8" y="69.5" fill="#A377E8" width="2.7" height="314.4"/>
	<rect x="572.2" y="186.2" fill="#8000F1" width="5.5" height="314.4"/>
	<rect x="572.2" y="186.2" fill="#A377E8" width="3.1" height="314.4"/>
	<rect x="180.1" y="162.6" fill="#8000F1" width="5.5" height="314.4"/>
	<rect x="180.1" y="162.6" fill="#A377E8" width="2.7" height="314.4"/>
	<rect x="244.6" y="182.6" fill="#8000F1" width="16.5" height="411.4"/>
	<rect x="382.4" y="454.5" fill="#8000F1" width="131.3" height="22.5"/>
	<rect x="254.3" y="300.2" fill="#8000F1" width="70" height="8.9"/>
	<rect x="510.5" y="359.4" fill="#8000F1" width="67.2" height="8.9"/>
	<rect x="244.6" y="571.5" fill="#8000F1" width="148.8" height="22.5"/>
	<rect x="244.6" y="182.6" fill="#A377E8" width="8.3" height="411.4"/>
	<rect x="182.9" y="437.5" fill="#8000F1" width="72.6" height="8.9"/>
</g>
</svg>
